<?xml version="1.0" standalone="no"?><!DOCTYPE svg PUBLIC "-//W3C//DTD SVG 1.1//EN" "http://www.w3.org/Graphics/SVG/1.1/DTD/svg11.dtd"><svg t="1632501112296" class="icon" viewBox="0 0 1024 1024" version="1.1" xmlns="http://www.w3.org/2000/svg" p-id="7595" xmlns:xlink="http://www.w3.org/1999/xlink" width="128" height="128"><defs><style type="text/css"></style></defs><path d="M512 512m-512 0a512 512 0 1 0 1024 0 512 512 0 1 0-1024 0Z" fill="#E4FAF8" p-id="7596"></path><path d="M409.2928 665.92768a16.1792 16.1792 0 0 1-16.384-15.99488v-175.98464a16.384 16.384 0 0 1 32.768 0v175.98464a16.19968 16.19968 0 0 1-16.384 16.03584z m98.304 0a16.1792 16.1792 0 0 1-16.384-15.99488v-175.98464a16.384 16.384 0 0 1 32.768 0v175.98464a16.1792 16.1792 0 0 1-16.384 16.03584z m98.304 0a16.1792 16.1792 0 0 1-16.384-15.99488v-175.98464a16.384 16.384 0 0 1 32.768 0v175.98464a16.15872 16.15872 0 0 1-16.384 16.03584z m131.072-288.03072v15.99488h-32.768v304.04608a64.83968 64.83968 0 0 1-65.536 64h-262.144a64.83968 64.83968 0 0 1-65.536-64v-304.0256h-32.768v-15.99488h-16.384v-15.99488a64.83968 64.83968 0 0 1 65.536-64h67.85024a65.20832 65.20832 0 0 1 63.22176-47.98464h98.304a65.20832 65.20832 0 0 1 63.22176 47.98464h67.85024a64.83968 64.83968 0 0 1 65.536 64v15.99488z m-360.448 352.03072h262.144a32.39936 32.39936 0 0 0 32.768-31.98976v-304.0256h-327.68l-2.31424 304.0256a34.48832 34.48832 0 0 0 35.0208 31.98976z m180.224-448h-98.304a32.768 32.768 0 0 0-28.20096 15.99488h154.70592a32.768 32.768 0 0 0-28.20096-15.99488z m131.072 47.98464h-360.448a32.39936 32.39936 0 0 0-32.768 31.98976h425.984a32.44032 32.44032 0 0 0-32.768-31.98976z" fill="#32B9AA" p-id="7597"></path></svg>