<svg class="icon" viewBox="0 0 1394 1024" xmlns="http://www.w3.org/2000/svg" width="174.25" height="128"><defs><style/></defs><path d="M714.578 359.87c-24.793 30.575-115.94 82.387-161.112 112.976-69.038 46.74-95.186 64.852-154.498 118.959-49.639 45.265-96.916 82.735-142.933 129.41-17.736 17.977-52.738 57.554-66.905 76.47-25.06 33.379-29.367 40.53-29.971 70.917v38.906c91.577-6.896 60.908-27.583 96.152-95.642 26.832-51.906 55.273-56.589 88.987-102.109C443.375 730.62 694.682 868.71 926.55 597.131c170.879-200.139 156.819-323.632 258.927-420.04 26.832-34.773 18.5-12.65 50.806-60.559h-243.58c-275.508 4.025-599.368 33.54-723.479 205.948-69.937 97.198-54.361 196.973 7.754 280.809 75.13-35.928 130.967-88.317 205.09-134.08 61.86-38.18 154.484-92.864 232.51-109.298z"/></svg>