<svg class="icon" viewBox="0 0 1024 1024" xmlns="http://www.w3.org/2000/svg" width="128" height="128"><defs><style/></defs><path d="M992 238.933c17.067 0 32-14.933 32-32V38.4c0-17.067-14.933-32-32-32H823.467c-17.067 0-32 12.8-32 32v51.2H232.533V38.4c0-17.067-14.933-32-32-32H32c-17.067 0-32 14.933-32 32v168.533c0 17.067 12.8 32 32 32h53.333V793.6H32c-17.067 0-32 12.8-32 32V992c0 17.067 12.8 32 32 32h168.533c17.067 0 32-12.8 32-32v-51.2h558.934V992c0 17.067 12.8 32 32 32H992c17.067 0 32-14.933 32-32V823.467c0-17.067-14.933-32-32-32h-53.333V236.8L992 238.933zm-842.667 224l309.334-307.2h145.066L149.333 608V462.933zm51.2-224c17.067 0 32-12.8 32-32v-51.2h136.534l-219.734 217.6v-134.4h51.2zm-51.2 458.667l546.134-541.867h96v38.4L187.733 793.6h-38.4v-96zm725.334-132.267S563.2 874.667 563.2 876.8H418.133l456.534-454.4v142.933zm-51.2 228.267c-17.067 0-32 12.8-32 32v51.2H652.8l221.867-221.867V793.6h-51.2zm51.2-460.8L326.4 876.8h-93.867v-38.4l603.734-599.467h38.4V332.8z"/></svg>