<svg class="icon" viewBox="0 0 1024 1024" xmlns="http://www.w3.org/2000/svg" width="128" height="128"><defs><style/></defs><path d="M326.072 966.074c1.754-32.314 37.544-74.22 61.52-94.997 131.97-114.388 288.662-120.991 452.53-103.513-29.258 121.094-167.516 235.379-298.757 251.604-92.635 16.4-217.586-10.841-215.293-53.094z"/><path d="M911.353 491.706c-14.594 64.63-25.191 142.082-42.321 205.842-2.017 7.576-1.183 10.007-13.204 8.549-96.91-11.536-220.02-12.092-313.351 17.686-62.65 19.98-122.275 49.48-179.295 73.074 19.006-179.018 306.957-350.462 548.17-305.151zM353.522 251.881c50.94 173.18 59.852 337.777-44.46 498.97-33.982-110.808-83.497-209.248-158.724-290.974-32.211-34.955 112.667-172.588 203.184-207.996zM920.04 429.926c-39.923.417-94.478-3.475-139.232 1.495-44.859 5.003-154.173 31.133-154.173 31.133C778.48 354.038 865.591 179.26 872.02 0c65.186 121.579 48.021 429.926 48.021 429.926zm-804.884 88.536c59.73 46.074 172.45 263.035 149.847 428.293C141.53 877.12 70.975 689.835 115.156 518.462zm472.284-290.07c-6.254 92.289-79.189 242.119-133.655 282.843-11.501-90.97-23.281-184.126-35.772-282.843H587.44z"/><path d="M808.223 66.714c-14.177 119.494-59.278 232.77-193.333 328.394 16.993-61.884 30.438-112.822 45.866-166.716 2.155-7.47 7.505-14.906 13.343-20.224 42.879-39.402 104.102-83.635 134.124-141.454z"/></svg>