<svg class="icon" viewBox="0 0 1024 1024" xmlns="http://www.w3.org/2000/svg" width="128" height="128"><defs><style/></defs><path d="M692.907 105.387a958.293 958.293 0 0 0-194.56-20.054 958.293 958.293 0 0 0-194.56 19.2c0 78.934-85.334 143.36-187.307 149.76v44.374c0 189.44 10.667 400.64 136.533 505.6A1400.747 1400.747 0 0 0 456.96 944.64l42.667 22.613 42.666-22.613A1401.173 1401.173 0 0 0 746.24 804.267c128-104.96 136.533-316.16 136.533-505.6V256c-106.24-7.253-187.733-71.253-189.866-150.613zm-202.24 584.96L312.32 527.36l58.453-64 106.24 97.28 157.014-219.307 70.826 50.347z"/></svg>