<svg class="icon" viewBox="0 0 1024 1024" xmlns="http://www.w3.org/2000/svg" width="128" height="128"><defs><style/></defs><path d="M760.448 943.232H287.744c-107.392 0-194.304-86.912-194.304-194.304V276.224c0-107.264 86.912-194.304 194.304-194.304h472.704c107.264 0 194.304 87.04 194.304 194.304v472.704c0 107.392-87.04 194.304-194.304 194.304z"/><path d="M817.536 681.088h-110.08c-2.944 0-5.248-2.304-5.248-5.248V340.864c0-2.944 2.304-5.248 5.248-5.248h110.08c2.944 0 5.248 2.304 5.248 5.248V675.84c0 2.944-2.432 5.248-5.248 5.248zm-161.92 0h-110.08c-2.944 0-5.248-2.304-5.248-5.248V205.952c0-2.944 2.304-5.248 5.248-5.248h110.08c2.944 0 5.248 2.304 5.248 5.248V675.84c0 2.944-2.432 5.248-5.248 5.248zm162.688 64.768H229.888c-7.424 0-13.44-6.016-13.44-13.44s6.016-13.44 13.44-13.44h588.416c7.424 0 13.44 6.016 13.44 13.44s-6.016 13.44-13.44 13.44zm-324.736-64.768h-110.08c-2.944 0-5.248-2.304-5.248-5.248V457.856c0-2.944 2.304-5.248 5.248-5.248h110.08c2.944 0 5.248 2.304 5.248 5.248V675.84c0 2.944-2.304 5.248-5.248 5.248zm-161.92 0h-110.08c-2.944 0-5.248-2.304-5.248-5.248v-75.904c0-2.944 2.304-5.248 5.248-5.248h110.08c2.944 0 5.248 2.304 5.248 5.248v75.904c0 2.944-2.304 5.248-5.248 5.248z"/></svg>