<svg class="icon" viewBox="0 0 1024 1024" xmlns="http://www.w3.org/2000/svg" width="200" height="200"><defs><style/></defs><path d="M512 96c229.76 0 416 186.24 416 416S741.76 928 512 928 96 741.76 96 512 282.24 96 512 96zm0 32c-212.064 0-384 171.936-384 384s171.936 384 384 384 384-171.936 384-384-171.936-384-384-384zm0 96a288 288 0 0 1 238.208 449.92 16.384 16.384 0 0 1-12.832 6.304 16 16 0 0 1-14.336-23.136l.416-.768.096-.16 5.376-8.16a256 256 0 0 0-386.272-328l136.832 136.864a64 64 0 0 1 87.68 87.68l68.16 68.16a16 16 0 0 1-20.416 24.448l-2.24-1.824-68.16-68.192a64 64 0 0 1-87.68-87.68L320 342.656A255.04 255.04 0 0 0 256 512c0 53.312 16.288 102.784 44.16 143.776a16 16 0 0 1-26.688 17.728l-.384-.544a16 16 0 0 1-.544-.896l.128.192-4.896-7.52A286.656 286.656 0 0 1 224 512c0-73.76 27.744-141.056 73.344-192l-36.672-36.704a16 16 0 0 1 20.416-24.48l2.24 1.824 36.64 36.672A286.944 286.944 0 0 1 512 224z"/></svg>