<svg class="icon" viewBox="0 0 1024 1024" xmlns="http://www.w3.org/2000/svg" width="128" height="128"><defs><style/></defs><path d="M512 770.31c-184.415 0-347.645 67.932-447.697 172.239h895.393c-100.053-104.307-263.282-172.24-447.697-172.24zm-13.02-389.39h.034l.169-.437.368-1.01.203-.89.202-1.313.066-1.85-.134-1.262-.204-1.228-.368-1.496-.404-1.195-.674-1.816-.469-1.009a44.17 44.17 0 0 0-3.095-5.484l-.437-.422c-58.94-72.478-188.489-25.095-188.489-25.095l.303.017.572.05h.034c3.465.187 16.786 1.565 30.343 11.455 1.683 1.228 3.397 2.69 5.147 4.324 1.783 1.597 3.564 3.347 5.45 5.282l.135.117c2.555 2.606 5.313 5.5 8.174 8.527l2.455 2.591 3.23 3.347a367.405 367.405 0 0 0 5.75 5.702l1.55 1.497a226.927 226.927 0 0 0 7.132 6.46l1.648 1.413a164.198 164.198 0 0 0 8.005 6.391l1.717 1.244c2.925 2.137 5.952 4.222 9.183 6.207l1.447.842a127.214 127.214 0 0 0 10.597 5.77l.27.15a91.294 91.294 0 0 0 16.583 6.007c29.437 7.568 52.817-3.196 60.286-8.715l.368-.335 1.918-1.834.64-.79 1.212-1.968c2.153 1.682 4.17 3.365 5.985 5.03 16.183 14.92 28.663 31.353 34.517 39.613v.134c.168 1.984.336 3.984.471 5.988.1 2.084.235 4.221.303 6.357.066 1.732.134 3.432.169 5.182.034 2.27.1 4.573.1 6.846 0 1.48-.033 2.975-.033 4.473-.032 2.49-.066 4.995-.17 7.503l-.134 2.824c-.404 9.892-1.177 19.781-2.387 29.588l-.067.588c-.404 3.196-.841 6.374-1.278 9.553l-.27 1.648a469.329 469.329 0 0 1-1.514 9.42 444.622 444.622 0 0 1-3.835 19.395c-12.211-7.37-27.214-16.25-37.272-21.615a8.367 8.367 0 0 0 2.589-3.75h.033v-.134l.405-2.324v-.166l-.405-2.524-.134-.589-1.345-3.044-.403-.724-2.626-3.77c-47.23-49.096-135.942-9.165-135.942-9.165l.537-.019c2.322-.017 12.045.255 22.505 6.697l4.373 3.128 1.918 1.563 3.23 2.727 2.186 1.932c1.65 1.464 3.365 2.944 5.148 4.528l2.962 2.571 3.363 2.827 3.432 2.759 3.497 2.64 3.937 2.776 3.735 2.521 4.642 2.71 3.835 2.186c2.084 1.044 4.305 2 6.56 2.961l2.69 1.26c23.683 9.318 42.456 2.24 50.933-3.13l.503-.32 1.277-.873.303-.217 1.28-1.027 1.919-2.322.234-.489.17-.368c1.917 1.278 3.767 2.555 5.347 3.835 13.02 10.528 23.584 22.304 29.066 28.864-16.652 59.797-43.868 108.306-66.07 122.636-46.727 30.091-90.593 37.342-90.593 37.342H575.58s-46.662-19.108-39.898-46.037c1.277-5.063 5.416-15.475 10.698-29.889l-.034.1c.537-1.412 1.109-3.027 1.648-4.541l1.346-3.667c.469-1.345.94-2.707 1.412-4.104.84-2.322 1.681-4.711 2.49-7.149l.975-2.84a633.784 633.784 0 0 0 7.702-24.325l.303-.943c8.646-29.417 16.587-64.606 18.908-101.71 6.629-10.395 15.71-23.345 26.88-35.71 2.723-3.027 5.919-6.14 9.418-9.284l.47.957-.1-.049.572.958.438.724 2.118 2.49.774.654 3.028 2.087.337.236c9.082 4.794 33.91 12.565 62.472 4.894 9.553-2.556 19.51-6.863 29.469-13.591a148.238 148.238 0 0 0 6.828-4.978l1.918-1.53 4.408-3.584 2.252-2.035 3.633-3.33 2.22-2.152 3.3-3.347 2.018-2.173 3.162-3.513 1.749-2.02 3.164-3.833 1.343-1.683c1.212-1.497 2.355-3.01 3.5-4.49l.706-.96c9.15-12.31 16.182-24.07 22.64-33.102l.504-.64 2.152-2.877c1.718-2.22 3.399-4.255 5.117-5.97 13.657-13.81 29.098-17.527 33.136-18.301h.031l1.043-.185s-166.05-36.382-217.855 59.493l-.035.069-.269.655-1.446 3.886-.371 1.378-.705 2.792-.203 1.346-.269 2.421-.034 1.112.134 2.37.069.757.64 2.658.234.624.775 1.68.471.827.403.706.066.017c1.415 2.002 3.13 3.465 4.914 4.542-7.403 5.296-16.99 12.699-26.982 20.571-2.153-39.141-12.176-78.87-35.456-114.816-9.755-15.021-19.479-28.225-29.1-39.932 2.288-5.752 9.286-22.355 20.319-40.1l1.58 1.599.068.05 2.69 2.17.438.302 3.095 1.817.37.186 4.071 1.681c13.154 4.307 44.743 9.083 78.451-1.715 17.56-5.618 35.66-15.374 52.042-31.79a198.84 198.84 0 0 0 8.375-8.999l.977-1.193a174.987 174.987 0 0 0 6.357-7.789l1.716-2.286c1.717-2.288 3.398-4.591 4.979-6.914l1.717-2.589c1.513-2.254 2.924-4.508 4.338-6.763l1.548-2.624a407.466 407.466 0 0 0 3.935-6.879l1.282-2.372a290.196 290.196 0 0 0 3.766-7.366l.874-1.784a256.898 256.898 0 0 0 3.937-8.426l.234-.555c7.569-17.022 13.053-33.153 18.301-46.575l.672-1.7c.572-1.48 1.177-2.927 1.783-4.356l1.143-2.675 1.55-3.431c1.75-3.784 3.563-7.283 5.481-10.31 17.224-26.913 43.094-34.65 43.094-34.65S541.267 66.733 500.698 217.98v.017l-.068.538a67.095 67.095 0 0 0-.74 6.392l-.067 2.355v3.869l.2 2.305.472 3.196.369 1.95.977 3.062.469 1.363 1.852 3.65.74 1.077 1.513 2.035 1.178 1.244.74.808h.103c6.19 5.802 14.13 7.401 18.468 7.822-10.698 11-22.303 24.725-30.815 35.12-64.084-65.413-117.842-65.363-117.842-65.363s43.025 10.428 87.43 63.934c12.28 20.303 31.893 43.867 45.921 74.682a171.638 171.638 0 0 1 4.373 10.597l1.277 3.465c.875 2.455 1.75 4.911 2.558 7.417.438 1.397.874 2.793 1.278 4.189.672 2.32 1.346 4.641 1.952 6.997.403 1.462.772 2.942 1.143 4.44l.269 1.212c-10.967-7.435-22.137-14.786-30.445-19.866 1.85-1.177 3.834-2.978 4.977-5.568z"/></svg>