<?xml version="1.0" standalone="no"?><!DOCTYPE svg PUBLIC "-//W3C//DTD SVG 1.1//EN" "http://www.w3.org/Graphics/SVG/1.1/DTD/svg11.dtd"><svg t="1684114527303" class="icon" viewBox="0 0 1024 1024" version="1.1" xmlns="http://www.w3.org/2000/svg" p-id="1708" xmlns:xlink="http://www.w3.org/1999/xlink" width="48" height="48"><path d="M512 512m-512 0a512 512 0 1 0 1024 0 512 512 0 1 0-1024 0Z" fill="#d81e06" p-id="1709" data-spm-anchor-id="a313x.7781069.0.i0" class="selected"></path><path d="M256 632.042667a62.762667 62.762667 0 0 1 33.728-53.333334 63.722667 63.722667 0 0 1 62.976 1.770667l-14.485333 8.021333c-34.581333 16.874667-37.845333 29.333333-37.845334 46.229334 0 36.437333 86.058667 88.896 221.76 88.896 135.68 0 221.76-52.458667 221.76-88.896 0-16.896-13.546667-34.709333-47.189333-51.626667l-4.266667-2.645333a63.189333 63.189333 0 0 1 64-0.896 65.322667 65.322667 0 0 1 32.810667 56.874666C789.248 710.186667 669.44 768 522.24 768S256 708.501333 256 634.730667v-2.688z m104.746667-5.333334a227.2 227.2 0 0 1 45.205333-19.52 215.488 215.488 0 0 0 116.202667 27.562667 221.461333 221.461333 0 0 0 117.12-27.562667 228.053333 228.053333 0 0 1 45.226666 19.52c-35.562667 39.125333-109.973333 52.48-162.346666 52.48-52.352 0-126.869333-13.312-161.429334-52.48zM522.112 234.666667c71.893333 106.666667 117.973333 173.312 117.973333 238.250666a118.016 118.016 0 1 1-235.968 0c0-64.938667 46.208-131.562667 117.973334-238.250666zM256 481.813333a42.922667 42.922667 0 0 1 67.541333-32 109.781333 109.781333 0 0 1 43.477334 96c-32.106667-31.104-68.352-4.437333-97.706667-32.896A44.672 44.672 0 0 1 256 481.813333z m507.904-36.629333c13.973333 6.634667 23.317333 20.288 24.426667 35.733333a44.8 44.8 0 0 1-13.290667 31.125334c-29.269333 28.437333-65.642667 1.770667-97.557333 32.896a112.106667 112.106667 0 0 1 43.264-96.021334 42.965333 42.965333 0 0 1 43.157333-3.733333zM317.866667 365.461333a24.874667 24.874667 0 0 1 33.941333 5.226667c14.464 17.322667 18.56 41.066667 10.666667 62.229333-14.037333-23.125333-38.144-12.458667-51.434667-33.792a24.896 24.896 0 0 1 6.826667-33.664z m414.357333 33.664c-12.373333 21.333333-37.248 10.666667-51.413333 33.792a67.584 67.584 0 0 1 10.752-62.293333c24.746667-22.122667 55.701333 3.626667 40.661333 28.501333z" fill="#FFFFFF" p-id="1710"></path></svg>