<svg class="icon" viewBox="0 0 1024 1024" xmlns="http://www.w3.org/2000/svg" width="128" height="128"><defs><style/></defs><path d="M778.6 155.6l14.2 6.7 2.4 15.6c11.8 91.8 89.7 96.3 92.1 96.3h21.2l2.4 20.1c0 4.5 54.3 499.3-382.6 662.8l-4.7 2.2H500l-4.7-2.2C58.3 793.8 112.6 299 115 294.5l2.4-20.2h21.2c9.5 0 82.7-6.7 92.1-94.1l2.4-15.6 14.2-6.7C450.4 84 490.5 70.6 499.9 66.1l4.7-2.2h8.6c7 .4 24.2 6.5 265.4 91.7zM481.9 267.5c-11 57.2-38.2 153.2-99.9 199.8-50 37.6-105.7 104-97.3 166.7 5.2 35.7 29.8 69.6 74 100.9-7.8-25.5-10-52.3-6.5-78.7 9-59 48.6-110.1 119.4-150.6 11.6-6.7 26.5-6.7 36.9 1.2 10.4 7.4 15.6 19.6 11.7 32-.7 4.4-5.9 44.9 51.8 88 48.7 36.2 53.9 86.6 42.1 131 41.4-20.3 88.9-53 105.7-102.1 18.8-53.5-1.3-119.3-60.9-195.7l-21.4 20.3c-9.7 8.5-23.3 11.7-35.6 6.7-12.3-4.5-20.3-15.8-20.1-28.3-.1-5.5-2.1-129.2-99.9-191.2z"/></svg>