<svg class="icon" viewBox="0 0 1024 1024" xmlns="http://www.w3.org/2000/svg" width="128" height="128"><defs><style/></defs><path d="M211.87 574.052h631.96c20.88 0 30.716-15.84 21.823-35.187l-74.57-162.259c-8.93-19.346-33.302-35.187-54.18-35.187H606.171v-237.68c0-21.41-17.122-38.9-38.002-38.9h-76.043c-20.915 0-38.037 17.488-38.037 38.9v237.68H318.795c-20.916 0-45.288 15.876-54.186 35.187l-74.56 162.259c-8.93 19.348.907 35.187 21.821 35.187m614.163 57.59h-582.37c3.154 59.997 1.81 132.195-46.832 175.043-68.119 59.961-45.153 125.592 3.158 151.573h98.866c9.737-13.611 63.351-91.334 79.094-169.889 2.453-16.287 3.931-27.08 3.931-27.08-.67 8.971-2.117 18.008-3.931 27.08-7.518 49.964-24.336 152.913-36.59 169.889h71.54c9.738-13.611 63.352-91.334 79.094-169.889a2878.5 2878.5 0 0 0 3.963-27.08c-.706 8.971-2.15 18.008-3.963 27.08-7.554 49.964-24.341 152.913-36.626 169.889h90.173c9.738-13.611 63.352-91.334 79.094-169.889 2.453-16.287 3.963-27.08 3.963-27.08-.707 8.971-2.15 18.008-3.963 27.08-7.549 49.964-24.336 152.913-36.626 169.889h90.543c9.734-13.611 63.352-91.334 79.095-169.889 2.453-16.287 3.962-27.08 3.962-27.08-.706 8.971-2.149 18.008-3.962 27.08-7.554 49.964-24.372 152.913-36.626 169.889h91.084s60.056-22.099 50.688-93.225c-13.39-101.437-18.73-157.825-36.759-233.391m0 0"/></svg>