<svg class="icon" viewBox="0 0 1024 1024" xmlns="http://www.w3.org/2000/svg" width="200" height="200"><defs><style/></defs><path d="M966.137 260.05l-52.192 52.374a142.89 142.89 0 0 1-202.018-202.93l52.193-52.192c28.833-28.833 9.672-62.777-42.338-54.747A261.51 261.51 0 0 0 506.26 315.89L68.283 753.87A142.708 142.708 0 0 0 269.935 956.25l437.978-437.978a261.144 261.144 0 0 0 312.424-215.339c8.76-52.374-25.367-71.718-54.2-42.885zM202.596 888.911a47.63 47.63 0 1 1 0-67.339 47.63 47.63 0 0 1 0 67.339zm-47.448-620.468L319.39 433.598l67.339-67.522-164.242-164.241-36.498-70.624L67.553 46.535l-67.34 67.34 84.129 117.888zm552.217 350.564a23.724 23.724 0 0 0-33.578 0l-101.1 101.1a23.724 23.724 0 0 0 0 33.578L811.02 992.02a95.26 95.26 0 1 0 134.678-134.313z"/></svg>