<?xml version="1.0" standalone="no"?><!DOCTYPE svg PUBLIC "-//W3C//DTD SVG 1.1//EN" "http://www.w3.org/Graphics/SVG/1.1/DTD/svg11.dtd"><svg t="1677227199680" class="icon" viewBox="0 0 1024 1024" version="1.1" xmlns="http://www.w3.org/2000/svg" p-id="57637" xmlns:xlink="http://www.w3.org/1999/xlink" width="64" height="64"><path d="M459.28448 882.76992v8.47872c0 15.5648-12.61568 28.13952-28.13952 28.13952H129.55648c-15.5648 0-28.13952-12.61568-28.13952-28.13952v-8.47872c0-15.52384 12.61568-28.13952 28.13952-28.13952h301.58848c15.5648-0.04096 28.13952 12.57472 28.13952 28.13952zM459.28448 730.68544v8.64256c0 15.48288-12.57472 28.0576-28.0576 28.0576H129.51552c-15.48288 0-28.0576-12.57472-28.0576-28.0576v-8.64256c0-15.48288 12.57472-28.0576 28.0576-28.0576h301.71136c15.48288-0.04096 28.0576 12.53376 28.0576 28.0576zM459.28448 578.72384v8.51968c0 15.52384-12.57472 28.13952-28.13952 28.13952H129.55648c-15.52384 0-28.13952-12.57472-28.13952-28.13952v-8.51968c0-15.52384 12.57472-28.13952 28.13952-28.13952h301.62944a28.09856 28.09856 0 0 1 28.09856 28.13952z" p-id="57638"></path><path d="M166.13376 206.88896v144.50688c0 13.47584 10.93632 24.41216 24.41216 24.41216h640.86016c13.47584 0 24.41216-10.93632 24.41216-24.41216V206.88896c0-13.47584-10.93632-24.41216-24.41216-24.41216H190.58688a24.375296 24.375296 0 0 0-24.45312 24.41216zM920.576 134.3488v289.50528c0 18.88256-15.31904 34.2016-34.2016 34.2016H135.5776c-18.88256 0-34.2016-15.31904-34.2016-34.2016V134.3488c0-18.88256 15.31904-34.2016 34.2016-34.2016h750.83776c18.88256 0.04096 34.16064 15.31904 34.16064 34.2016zM669.04064 854.6304h144.83456a24.24832 24.24832 0 0 0 24.24832-24.24832v-190.75072a24.24832 24.24832 0 0 0-24.24832-24.24832h-144.83456a24.24832 24.24832 0 0 0-24.24832 24.24832v190.75072a24.24832 24.24832 0 0 0 24.24832 24.24832z m-72.33536-304.04608h289.50528c18.88256 0 34.2016 15.31904 34.2016 34.2016v300.40064c0 18.88256-15.31904 34.2016-34.2016 34.2016h-289.50528c-18.88256 0-34.2016-15.31904-34.2016-34.2016v-300.40064c0.04096-18.88256 15.31904-34.2016 34.2016-34.2016z" p-id="57639"></path></svg>