<?xml version="1.0" standalone="no"?><!DOCTYPE svg PUBLIC "-//W3C//DTD SVG 1.1//EN" "http://www.w3.org/Graphics/SVG/1.1/DTD/svg11.dtd"><svg t="1677576279508" class="icon" viewBox="0 0 1024 1024" version="1.1" xmlns="http://www.w3.org/2000/svg" p-id="2076" xmlns:xlink="http://www.w3.org/1999/xlink" width="64" height="64"><path d="M874 80.5H150.7c-47.4 0-86 38.6-86 86v550c0 1.2 0.1 2.5 0.2 3.7l-0.2 192.2c0 14.5 8.7 27.7 22.2 33.3 4.5 1.9 9.2 2.8 13.8 2.8 9.3 0 18.5-3.6 25.4-10.5l136.2-135.4H874c47.4 0 86-38.6 86-86v-550c0-47.5-38.6-86.1-86-86.1z m14 636c0 7.7-6.3 14-14 14H249.5c-9.8-0.5-19.8 2.9-27.4 10.4l-85.4 84.8 0.1-109.2c0-1.3-0.1-2.5-0.2-3.7V166.5c0-7.7 6.3-14 14-14H874c7.7 0 14 6.3 14 14v550z" p-id="2077"></path><path d="M750.3 297h-476c-19.9 0-36 16.1-36 36s16.1 36 36 36h475.9c19.9 0 36-16.1 36-36s-16.1-36-35.9-36zM505.5 513.4H274.3c-19.9 0-36 16.1-36 36s16.1 36 36 36h231.2c19.9 0 36-16.1 36-36s-16.1-36-36-36z" p-id="2078"></path></svg>