<svg class="icon" viewBox="0 0 1024 1024" xmlns="http://www.w3.org/2000/svg" width="400" height="400"><defs><style/></defs><path d="M354.5 895.999a32.5 32.5 0 0 1-32.5-32.5 32.5 32.5 0 0 1 32.5-32.5H450v-126H95a29.825 29.825 0 0 1-11.676-2.358 29.919 29.919 0 0 1-9.536-6.431 29.936 29.936 0 0 1-6.431-9.535A29.816 29.816 0 0 1 65 674.999v-516a29.843 29.843 0 0 1 2.357-11.679 29.935 29.935 0 0 1 6.431-9.535 29.859 29.859 0 0 1 9.536-6.427A29.769 29.769 0 0 1 95 128.999h834a29.786 29.786 0 0 1 11.679 2.358 29.855 29.855 0 0 1 9.535 6.427 29.9 29.9 0 0 1 6.431 9.535 29.83 29.83 0 0 1 2.355 11.68v516a29.814 29.814 0 0 1-2.355 11.676 29.9 29.9 0 0 1-6.431 9.535 29.915 29.915 0 0 1-9.535 6.431A29.843 29.843 0 0 1 929 704.999H577v126h95.5a32.5 32.5 0 0 1 32.5 32.5 32.5 32.5 0 0 1-32.5 32.5zm41.205-517.7a257.925 257.925 0 0 0-13.121 42.618 173.6 173.6 0 0 0-3.854 36.3 129.351 129.351 0 0 0 3.694 30.445 111.89 111.89 0 0 0 9.52 25.062 115.226 115.226 0 0 0 24.69 31.586 141.49 141.49 0 0 0 28.1 19.7 158.457 158.457 0 0 0 23.063 10.128c5.873 2.022 9.532 2.852 9.567 2.861a61.742 61.742 0 0 1-10.352-14.14 49.583 49.583 0 0 1-4.861-13.986 53.764 53.764 0 0 1 1.7-25.376 75.648 75.648 0 0 1 8.462-18.363 63.193 63.193 0 0 1 5.095-7.088 146.439 146.439 0 0 0 10.849-16.664c3.406-5.88 7.2-12.861 11.269-20.756 6.96-13.489 12.371-25.069 12.423-25.178a284.923 284.923 0 0 1 28.407 30.689 177.855 177.855 0 0 1 17.844 27.145c7.821 14.928 11.98 29.385 12.358 42.967a67.645 67.645 0 0 1-1.311 15.492 57.977 57.977 0 0 1-3.524 11.272 39.439 39.439 0 0 1-5.322 9.221 174.125 174.125 0 0 0 29.638-13.227 124.79 124.79 0 0 0 22.259-16.065 101.31 101.31 0 0 0 15.755-18.215 96.126 96.126 0 0 0 10.131-19.673 106.087 106.087 0 0 0 5.723-22.691 129.4 129.4 0 0 0 1.08-22.7 176.593 176.593 0 0 0-6.985-41.7 227.917 227.917 0 0 0-11.2-30.519c-3.2-7.091-5.594-11.371-5.856-11.836a93.554 93.554 0 0 1-3.444-19.513 80.453 80.453 0 0 1 .381-15.04 53.092 53.092 0 0 1 3.06-13.1 36.434 36.434 0 0 0-17.356 7.4 59.978 59.978 0 0 0-12.322 12.941 85.672 85.672 0 0 0-9.779 17.776 163.071 163.071 0 0 0-8.052-36.876 141.556 141.556 0 0 0-14.236-29.471 143.98 143.98 0 0 0-38.064-39.808 163.635 163.635 0 0 0-19.359-11.865 166.52 166.52 0 0 0-16.6-7.526 117.531 117.531 0 0 0-15.963-5.1 27.24 27.24 0 0 1 5.742 9.814 45.493 45.493 0 0 1 2.255 12.515 77.673 77.673 0 0 1-.724 14.313 115.838 115.838 0 0 1-3.2 15.2 146.906 146.906 0 0 1-11.833 29.446c-4.925 9.212-10.362 16.866-15.719 22.14a115.811 115.811 0 0 0-16.492 20.936 178.636 178.636 0 0 0-11.56 21.753 191.028 191.028 0 0 0-9.042 23.989c.471-2.019.083-4.707-1.15-7.984a54.116 54.116 0 0 0-4.54-8.946 106.529 106.529 0 0 0-7.232-10.288v-.006z"/></svg>