<svg class="icon" viewBox="0 0 1024 1024" xmlns="http://www.w3.org/2000/svg" width="400" height="400"><defs><style/></defs><path d="M512 62c248.528 0 450 201.472 450 450S760.528 962 512 962 62 760.528 62 512 263.472 62 512 62zm-37.973 201c11.524 78.41-41.785 164.143-93.193 228.204-1.811-31.266-3.722-52.844-19.883-82.756-1.924 30.103-14.814 57.255-28.227 84.6l-1.52 3.096c-11.409 23.233-22.912 46.691-28.116 72.3-15.498 76.286 11.18 132.352 112.637 191.287l3.029 1.748-.939-2.01c-31.364-67.858-14.047-107.064 10.812-144.006 27.502-40.88 34.598-81.336 34.598-81.336s21.62 28.583 12.979 73.269c38.204-43.232 45.383-112.096 39.633-138.485 86.33 61.353 123.221 194.18 73.51 292.624 264.389-152.162 65.74-379.81 31.158-405.475 11.532 25.641 13.71 69.072-9.572 90.135C571.507 294.158 474.027 263 474.027 263z"/></svg>