<?xml version="1.0" standalone="no"?><!DOCTYPE svg PUBLIC "-//W3C//DTD SVG 1.1//EN" "http://www.w3.org/Graphics/SVG/1.1/DTD/svg11.dtd"><svg t="1684294712835" class="icon" viewBox="0 0 1024 1024" version="1.1" xmlns="http://www.w3.org/2000/svg" p-id="6851" xmlns:xlink="http://www.w3.org/1999/xlink" width="64" height="64"><path d="M664.738909 616.494545h0.069818l174.545455 174.638546 0.069818-122.251636a34.117818 34.117818 0 1 1 68.212364 0v204.63709A34.117818 34.117818 0 0 1 873.518545 907.636364h-204.63709a34.117818 34.117818 0 0 1 0-68.212364h122.321454l-174.638545-174.615273a34.117818 34.117818 0 0 1 48.174545-48.314182z m-305.477818 0a34.117818 34.117818 0 0 1 48.174545 48.314182l-174.638545 174.615273h122.321454a34.117818 34.117818 0 1 1 0 68.212364H150.481455A34.117818 34.117818 0 0 1 116.363636 873.518545v-204.63709a34.117818 34.117818 0 0 1 68.212364 0l0.069818 122.251636 174.545455-174.638546zM355.141818 116.363636a34.117818 34.117818 0 0 1 0 68.212364h-122.321454l174.638545 174.615273a34.117818 34.117818 0 0 1-48.174545 48.314182l-174.685091-174.708364v122.321454a34.117818 34.117818 0 0 1-68.212364 0V150.481455A34.117818 34.117818 0 0 1 150.481455 116.363636h204.63709z m518.4 0A34.117818 34.117818 0 0 1 907.636364 150.481455v204.63709a34.117818 34.117818 0 0 1-68.212364 0v-122.321454l-174.685091 174.708364a34.117818 34.117818 0 0 1-48.174545-48.314182l174.638545-174.615273H668.858182a34.117818 34.117818 0 0 1 0-68.212364z" p-id="6852"></path></svg>