<svg class="icon" viewBox="0 0 1024 1024" xmlns="http://www.w3.org/2000/svg" width="128" height="128"><defs><style/></defs><path d="M511.488 51.2c257.024 0 460.288 202.24 461.312 459.776.512 256.512-205.312 462.848-461.824 461.824C253.952 972.288 51.2 769.024 51.2 512c0-256.512 204.288-460.8 460.288-460.8zM629.76 334.848l21.504-23.04c-.512-8.704 2.048-19.456-2.56-25.088-13.312-17.92-29.696-34.304-45.568-52.736-5.632 4.608-11.776 9.216-14.336 11.264-18.944-10.24-35.328-19.968-52.224-26.624-4.096-1.536-12.288 7.68-18.432 11.776 17.92 25.6-4.608 46.08-8.704 70.144-3.584-1.024-9.216-2.048-9.216-3.584-2.56-24.576-23.04-25.6-39.936-31.744-9.216-3.072-18.432-6.144-27.136-10.752-14.848-7.68-15.36-18.432-4.608-30.208 24.576-24.576 62.976-33.792 79.872-68.608 1.024-2.56 14.336-2.56 19.456.512 8.704 4.608 15.872 12.288 24.064 19.456-7.68 9.216-12.8 15.872-17.92 21.504 11.264 5.12 20.992 9.728 30.72 13.824 13.824 5.12 29.184 14.848 30.72-12.8.512-5.12 16.896-13.824 17.92-12.8 13.824 13.824 42.496 13.824 41.472 42.496-6.144 3.584-11.264 6.656-17.408 10.24 4.096 8.704 6.656 16.896 11.264 24.064 5.12 8.192 10.752 16.384 17.408 23.552 17.408 19.456 29.696 17.408 43.52-5.12 5.632-9.728 12.288-21.504 20.992-25.6 22.528-10.752 46.592-17.408 74.24-27.648-20.992-17.92-38.4-37.888-60.416-50.176-43.008-24.064-88.064-45.568-133.12-65.024-22.016-9.216-35.328.512-35.328 18.432h-35.84c12.288-8.192 20.992-13.824 29.696-19.456-41.984-4.608-81.408-5.632-120.832-4.096-12.8.512-31.744 2.56-27.648 27.648 9.216-3.072 17.408-6.144 27.136-9.216-1.024 8.192-1.536 14.336-2.048 20.48-10.24-1.024-19.968-1.536-30.72-2.56 4.096 12.288 6.656 20.992 8.192 25.6-9.728-2.56-17.408-6.144-24.576-5.632-22.528 2.048-45.056 6.144-67.584 9.216-.512-3.072-1.024-5.632-1.024-8.704 16.384-1.536 33.28-3.072 55.808-4.608-16.384-13.312-25.6-20.992-34.304-28.16-62.976 28.672-115.712 68.608-159.744 123.392 7.168 6.144 14.848 10.24 18.944 16.896 11.776 16.896 33.28 36.864 31.232 52.224-9.216 64.512 41.472 94.208 71.168 136.704-5.632-9.728-11.264-19.968-16.896-29.696 9.728 3.072 14.848 9.216 20.48 15.36 20.48 23.04 30.208 57.344 65.024 67.072 15.36 4.096 31.232 9.216 46.08 15.872 18.944 8.704 37.376 19.456 56.32 29.696V529.92c-9.216-1.536-17.408-3.072-25.6-4.608 2.56-11.776 4.608-21.504 6.656-30.72-11.264.512-16.896 5.12-22.528 9.728-15.36 12.8-29.696 9.728-38.912-7.68-10.24-20.48.512-34.816 16.384-45.056 24.064-15.872 57.344-9.728 78.336 11.264 3.584 3.584 9.728 5.12 16.384 8.704 1.536-15.872-1.024-30.208 4.608-40.448 9.216-17.92 22.016-34.816 35.84-49.664 11.264-12.288 24.576-23.04 38.4-31.744 10.24-7.68 23.552-10.24 35.328-14.848zM512.512 567.296c-1.536 7.68-1.024 16.384-4.608 20.992-35.84 44.032-10.752 82.944 24.064 112.64 18.432 15.872 27.136 31.232 23.04 54.784-8.192 47.616-16.384 94.72-23.552 142.336-.512 4.608 4.096 13.824 6.656 13.824 15.36 0 32.768 7.168 40.96-16.384 4.608-13.824 14.848-32.256 27.136-36.864 30.208-10.752 43.52-37.376 64.512-56.32 18.432-16.384 24.064-44.032 53.248-52.224 10.24-2.56 16.384-20.992 23.04-32.768 6.144-10.752 9.216-24.064 16.384-33.792 17.408-22.528 15.36-37.376-11.264-46.08-21.504-7.168-44.032-11.776-67.584-17.408 2.048-22.528-11.264-32.768-31.744-37.376-8.192-2.048-16.384-6.656-24.064-11.264-22.528-12.8-45.056-24.064-72.192-15.872-15.36 3.072-30.72 7.68-44.032 11.776zm404.48-115.712c-14.848 17.408-27.648 31.744-39.936 46.592-34.816 41.984-12.288 108.544 33.792 117.248 11.776-53.76 19.456-107.52 6.144-163.84zm-14.336-74.752c-4.608-.512-8.704-.512-13.312-1.024-2.048 12.8-8.192 26.624-5.12 38.4 2.56 9.728 14.848 16.896 23.04 25.088 2.56-2.048 5.632-3.584 8.192-5.632-4.096-18.944-8.704-37.888-12.8-56.832z"/><path d="M629.76 334.848c-15.872 2.048-32.768 5.12-25.088-24.064-11.776 4.608-18.432 7.68-25.088 10.24-.512-1.024-1.536-2.048-2.048-3.072 3.584-2.048 7.168-6.144 10.24-6.656 20.992-.512 41.984 0 63.488 0-7.168 8.192-14.336 15.872-21.504 23.552z"/></svg>