<svg width="64" height="64" class="icon" viewBox="0 0 1024 1024" xmlns="http://www.w3.org/2000/svg"><defs><style/></defs><path d="M510.976 93.637v-1.273 1.273zM391.081 961.609H226.179c-16.538 0-29.93-13.406-29.93-29.944V541.974H76.352c-8.268 0-14.987-6.711-14.987-14.988 0-4.874 2.327-9.198 5.928-11.936h-.03L497.907 70.051a14.974 14.974 0 0 1 13.068-7.661c5.636 0 10.552 3.118 13.114 7.728l430.57 444.92a14.985 14.985 0 0 1 5.926 11.95c0 8.276-6.717 14.987-14.987 14.987v.028h-149.87v389.663c0 16.538-13.362 29.944-29.93 29.944h-164.9V736.768c0-16.581-13.45-29.937-30.061-29.937H421.142c-16.611 0-30.061 13.407-30.061 29.937V961.61z"/></svg>