<svg class="icon" viewBox="0 0 1024 1024" xmlns="http://www.w3.org/2000/svg" width="128" height="128"><defs><style/></defs><path d="M501.2.045C532.35.5 558.613 12.552 580.102 36.2c21.601 23.648 32.061 51.845 31.493 84.816a120.516 120.516 0 0 1-34.336 83.565 113.012 113.012 0 0 1-80.268 33.426 103.461 103.461 0 0 1-44.113-10.233 114.945 114.945 0 0 1-58.097-63.668 120.516 120.516 0 0 1-8.186-47.07c.34-15.917 3.524-31.379 9.777-46.046a114.945 114.945 0 0 1 60.258-62.304A103.461 103.461 0 0 1 501.2.046zm25.24 1023.814c-33.54-.568-58.894-7.959-76.176-22.284a122.22 122.22 0 0 1-36.95-48.093 147.802 147.802 0 0 1-11.71-50.82 849.293 849.293 0 0 1-.683-30.47l6.822-393.723a98.8 98.8 0 0 0-5.685-40.02 38.201 38.201 0 0 0-16.486-20.01 29.22 29.22 0 0 0-21.601-2.274 50.707 50.707 0 0 0-21.034 11.71c6.026-28.65 17.054-51.844 32.971-69.694 15.804-17.85 33.995-31.038 54.573-39.565a141.549 141.549 0 0 1 122.449 5.912c18.19 10.005 33.085 24.671 44.795 43.886 11.597 19.1 17.168 42.294 16.713 69.353l-6.48 373.484c-.341 17.737 0 32.972.91 45.478a78.904 78.904 0 0 0 8.526 31.834c4.548 8.641 11.37 14.78 20.465 18.76 9.21 3.98 21.716 6.14 37.747 6.367a145.983 145.983 0 0 1-26.15 56.62 143.027 143.027 0 0 1-45.478 37.746c-19.782 11.142-45.705 16.371-77.539 15.803z"/></svg>