<svg class="icon" viewBox="0 0 1024 1024" xmlns="http://www.w3.org/2000/svg" width="130" height="130"><defs><style/></defs><path d="M694.857 768v73.143c0 20.004-16.567 36.571-36.571 36.571H365.714c-20.004 0-36.571-16.567-36.571-36.571V768c0-20.005 16.567-36.571 36.571-36.571h36.572V512h-36.572c-20.004 0-36.571-16.567-36.571-36.571v-73.143c0-20.005 16.567-36.572 36.571-36.572h219.429c20.004 0 36.571 16.567 36.571 36.572v329.143h36.572c20.004 0 36.571 16.566 36.571 36.571zm-73.143-658.286V219.43c0 20.004-16.567 36.571-36.571 36.571H438.857c-20.004 0-36.571-16.567-36.571-36.571V109.714c0-20.004 16.567-36.571 36.571-36.571h146.286c20.004 0 36.571 16.567 36.571 36.571z"/></svg>