<svg class="icon" viewBox="0 0 1024 1024" xmlns="http://www.w3.org/2000/svg" width="128" height="128"><defs><style/></defs><path d="M228.762 33.997c-.82.819-1.434 51.61-1.434 112.845v111.206l-95.642.41-95.641.614 16.179 17.818 16.18 18.022h79.052l-1.024 5.53c-.614 3.276-3.277 23.756-6.144 45.67-6.554 50.995-21.709 141.926-30.925 187.187C93.184 612.762 68.608 695.91 41.574 762.88c-14.54 36.454-16.998 48.742-9.216 49.766 6.35 1.024 21.3-14.745 47.104-49.152 59.392-79.257 94.618-148.07 135.783-265.42l11.878-34.202.615 257.843.614 257.843 5.325 3.892c5.325 4.096 5.734 4.096 46.08-.41 41.574-4.506 46.694-5.734 54.477-15.155 3.276-4.096 3.481-21.709 3.686-286.925.205-239.206.614-281.19 3.072-273.818 1.434 4.71 3.686 9.83 4.71 11.264 2.253 2.868 9.216 27.648 12.698 45.466 1.434 6.758 3.686 16.384 5.325 21.504s4.71 22.938 6.963 39.936c8.192 60.416 10.854 70.451 23.552 85.811 8.602 10.65 17.818 13.927 38.912 13.722 20.48 0 29.9-4.301 37.683-16.384 13.927-21.504 17.203-37.683 14.541-71.475-2.048-26.42-5.734-39.117-18.432-64.512-4.506-8.807-7.578-17.204-6.758-18.432.614-1.434.614-1.844-.41-1.024-.82.819-5.325-4.301-9.83-11.264-9.012-14.132-35.43-42.394-39.527-42.394-1.433 0-3.481-1.229-4.3-2.867-2.049-3.891-33.997-23.757-53.249-33.178l-14.95-7.373v-61.03h215.04l-1.024 5.53c-.614 3.276-3.277 23.756-6.144 45.67-6.554 50.995-21.709 141.926-30.925 187.187-16.179 79.463-40.755 162.611-67.789 229.581-14.54 36.454-16.998 48.742-9.216 49.766 6.35 1.024 21.3-14.745 47.104-49.152 59.392-79.257 94.618-148.07 135.783-265.42l11.878-34.202.615 257.843.614 257.843 5.325 3.892c5.325 4.096 5.734 4.096 46.08-.41 41.574-4.506 46.694-5.734 54.477-15.155 3.276-4.096 3.481-19.661 3.89-244.941.206-163.635.82-237.978 2.254-232.448 1.024 4.506 5.734 23.347 10.24 41.984 26.419 108.34 61.235 182.682 118.17 253.542 16.793 20.48 24.78 27.034 33.791 27.034 6.759 0 10.035-5.12 17.408-27.238 9.216-27.034 19.866-45.67 35.021-60.826 7.373-7.373 16.384-14.95 20.07-16.794 14.746-7.782 11.674-14.745-15.974-36.659-24.576-19.456-65.126-59.187-83.354-81.715-46.08-57.14-95.232-164.045-129.228-281.19l-4.096-13.722h108.953c121.037 0 117.965.41 117.965-13.107 0-5.735-2.458-9.011-15.77-21.914-8.806-8.397-15.564-15.77-15.36-16.589.205-1.024-.41-1.433-1.228-1.024-1.434.41-8.397-4.915-31.335-24.576-12.902-11.264-20.275-14.95-29.286-14.95-12.288 0-17.613 3.482-43.008 29.696l-24.781 25.6h-70.656V81.715l11.878-5.12c20.07-8.806 22.324-11.059 20.276-19.66-1.844-7.169-7.783-9.217-35.43-11.879-13.518-1.229-42.19-4.506-64.103-7.168-21.914-2.662-40.55-4.506-41.575-3.891-.819.614-1.638 51.2-1.638 112.64v111.411H511.59l-7.577-6.554c-4.096-3.686-7.168-7.372-6.759-8.192.205-.819-.41-1.433-1.228-1.228-1.434.614-8.397-4.71-31.335-24.372-12.902-11.264-20.275-14.95-29.286-14.95-12.288 0-17.613 3.482-43.008 29.696l-24.781 25.6H337.92V81.715l11.878-5.12c20.07-8.806 22.324-11.059 20.276-19.66-1.844-7.169-7.783-9.217-35.43-11.879-27.24-2.662-88.68-9.83-98.1-11.469-3.482-.614-6.963-.41-7.782.41z"/></svg>