<?xml version="1.0" standalone="no"?><!DOCTYPE svg PUBLIC "-//W3C//DTD SVG 1.1//EN" "http://www.w3.org/Graphics/SVG/1.1/DTD/svg11.dtd"><svg t="1677202361436" class="icon" viewBox="0 0 1024 1024" version="1.1" xmlns="http://www.w3.org/2000/svg" p-id="14687" xmlns:xlink="http://www.w3.org/1999/xlink" width="64" height="64"><path d="M896 896H128a42.666667 42.666667 0 0 0 0 85.333333h768a42.666667 42.666667 0 0 0 0-85.333333zM469.333333 853.333333h85.333334a85.333333 85.333333 0 0 0 85.333333-85.333333V170.666667a85.333333 85.333333 0 0 0-85.333333-85.333334h-85.333334a85.333333 85.333333 0 0 0-85.333333 85.333334v597.333333a85.333333 85.333333 0 0 0 85.333333 85.333333z m0-682.666666h85.333334v597.333333h-85.333334zM853.333333 426.666667h-85.333333a85.333333 85.333333 0 0 0-85.333333 85.333333v256a85.333333 85.333333 0 0 0 85.333333 85.333333h85.333333a85.333333 85.333333 0 0 0 85.333334-85.333333v-256a85.333333 85.333333 0 0 0-85.333334-85.333333z m0 341.333333h-85.333333v-256h85.333333zM170.666667 853.333333h85.333333a85.333333 85.333333 0 0 0 85.333333-85.333333v-341.333333a85.333333 85.333333 0 0 0-85.333333-85.333334H170.666667a85.333333 85.333333 0 0 0-85.333334 85.333334v341.333333a85.333333 85.333333 0 0 0 85.333334 85.333333z m0-426.666666h85.333333v341.333333H170.666667z" p-id="14688"></path></svg>