<svg class="icon" viewBox="0 0 1024 1024" xmlns="http://www.w3.org/2000/svg" width="128" height="128"><defs><style/></defs><path d="M915.41 318.72c-22.592-16.32-38.848-41.984-35.968-67.136C889.49 162.816 835.09 87.04 747.154 73.216a147.2 147.2 0 0 1-45.248-16.704 108.8 108.8 0 0 0-82.816-11.52 33.92 33.92 0 0 1-37.184-8.704C511.89-27.136 402.322-4.48 367.954 81.536a80.192 80.192 0 0 1-47.232 48.512 40.576 40.576 0 0 0-14.4 8.384c-11.392 12.224-22.272 9.216-36.032 3.328A135.104 135.104 0 0 0 81.554 262.784a87.488 87.488 0 0 1-13.632 40.64c-26.496 42.688-31.168 85.44-13.376 129.728a81.92 81.92 0 0 0 29.888 94.976c34.624 25.6 74.496 12.16 105.088-12.416a133.632 133.632 0 0 0 26.432-5.312c17.984-5.44 34.24-11.84 49.408-4.8a80.64 80.64 0 0 0 7.36 4.8l1.984 1.728v-.384a79.552 79.552 0 0 0 15.488 6.4 489.472 489.472 0 0 0 179.2 259.52 491.776 491.776 0 0 1-53.76 187.008c-35.2 21.504-78.144 5.952-115.2-4.224-32.576-9.024-64-12.352-96.832-1.984a14.08 14.08 0 0 0-10.176 12.8v.448l-7.424 32a14.72 14.72 0 0 0 12.8 18.048 15.488 15.488 0 0 0 3.904.512H804.69a13.312 13.312 0 0 0 11.392-5.632 14.656 14.656 0 0 0 5.76-11.52v-22.016a14.784 14.784 0 0 0-9.92-14.144 13.824 13.824 0 0 0-9.152-3.136H620.754c-9.024-10.432-18.24-20.992-27.712-31.424-26.432-28.992-38.4-61.312-26.24-100.416a246.912 246.912 0 0 0 8.832-41.792c5.056-41.728 9.792-83.712 14.656-126.208a252.16 252.16 0 0 0 159.104-76.032 83.84 83.84 0 0 0 47.04-14.272l5.312-1.664c28.992 23.424 73.728 25.6 107.52 13.312 31.296-11.584 58.432-42.88 59.328-77.312a82.048 82.048 0 0 0-.384-9.6c24.384-62.784 2.112-142.016-52.864-181.824zm-531.2 189.184l.96-.384a28.224 28.224 0 0 1 22.976 4.736c8 6.4 15.552 12.8 22.976 19.904 0 .576 0 1.152.32 1.728l33.92 113.28c2.688 19.2 4.416 37.952 5.376 56.768a235.968 235.968 0 0 1-86.336-196.096zM603.73 616.96c2.624-6.4 5.312-12.8 8.064-19.2h2.752v-6.4a501.12 501.12 0 0 1 25.024-49.216 236.8 236.8 0 0 0 37.12 27.328 296.064 296.064 0 0 1-72.96 47.488zm0 0"/></svg>