<svg class="icon" viewBox="0 0 1024 1024" xmlns="http://www.w3.org/2000/svg" width="128" height="128"><defs><style/></defs><path d="M702.8 882.2c1.7 7.2 3.2 13.9 4.7 20.1-1.3-7.1-3-13.7-4.7-20.1zm271.5-604.3c-39.6-95.7-63.2-118.5-63.2-118.5s21.8 55.4-13.3 96c-35 40.6-187.5 54.9-231.1 167.2-13.6 35.1-20.2 63.8-23.1 86.3-24.7-130.3-85.1-271.8-258.1-298-195.2-29.5-212.6 44.9-350.9 37.8 0 0 115.8 30.5 164.8 160.8 49.1 130.3 149.1 338 355.1 356.3 82.7 7.4 129.1 45.8 148.3 116.3-30.7-134.6-94.9-452.5-487.8-609 64.5 8.1 366.5 34.5 444.4 368.8-2.9 39.4 3.3 96.7 34.2 182.5 0 0-41.6-140.5-16.5-180.4 25.1-39.9 88.4-43.8 156.6-70.7 68.2-26.7 196.8-159.4 140.6-295.4zm-176 176.8c-40.4 35.8-113.5 97.8-126.8 132.2-4.8 12.4-9.7 28.9-11.7 51.2-2.1-24.9-4.6-52.8-8.6-82.4 9.6-23.1 32-68.2 72.1-104 41.6-37.1 129.2-93.5 188.6-148.4-8.3 34.2-73.2 115.6-113.6 151.4zm0 0"/></svg>