<svg class="icon" viewBox="0 0 1024 1024" xmlns="http://www.w3.org/2000/svg" width="128" height="128"><defs><style/></defs><path d="M512 0c19.456 0 35.84 15.872 35.84 35.84v68.096A409.746 409.746 0 0 1 920.064 476.16h68.096c19.456 0 35.84 15.872 35.84 35.84 0 19.456-16.384 35.84-35.84 35.84h-68.096A409.746 409.746 0 0 1 547.84 920.064v68.096c0 19.456-16.384 35.84-35.84 35.84a36.279 36.279 0 0 1-35.84-35.84v-68.096A409.746 409.746 0 0 1 103.936 547.84H35.84A36.279 36.279 0 0 1 0 512c0-19.968 16.384-35.84 35.84-35.84h68.096A410.185 410.185 0 0 1 476.16 103.936V35.84C476.16 15.872 492.544 0 512 0zm0 174.08A338.286 338.286 0 0 0 174.08 512 338.286 338.286 0 0 0 512 849.92 338.286 338.286 0 0 0 849.92 512 338.286 338.286 0 0 0 512 174.08zm0 56.32a281.6 281.6 0 1 1 0 563.2 281.6 281.6 0 0 1 0-563.2z"/></svg>