<?xml version="1.0" standalone="no"?><!DOCTYPE svg PUBLIC "-//W3C//DTD SVG 1.1//EN" "http://www.w3.org/Graphics/SVG/1.1/DTD/svg11.dtd"><svg t="1679370253305" class="icon" viewBox="0 0 1024 1024" version="1.1" xmlns="http://www.w3.org/2000/svg" p-id="7856" xmlns:xlink="http://www.w3.org/1999/xlink" width="64" height="64"><path d="M836.266667 277.333333c-51.2-115.2-170.666667-192-298.666667-192-106.666667 0-209.066667 55.466667-268.8 140.8C145.066667 238.933333 42.666667 349.866667 42.666667 477.866667c0 72.533333 34.133333 145.066667 89.6 192 8.533333 8.533333 17.066667 12.8 25.6 12.8 12.8 0 25.6-4.266667 34.133333-17.066667 17.066667-17.066667 12.8-46.933333-4.266667-59.733333-38.4-29.866667-59.733333-76.8-59.733333-128C128 384 204.8 311.466667 294.4 311.466667c55.466667 0 110.933333 29.866667 140.8 76.8 12.8 21.333333 38.4 25.6 59.733333 12.8 21.333333-12.8 25.6-38.4 12.8-59.733334-34.133333-51.2-81.066667-85.333333-136.533333-102.4 42.666667-42.666667 102.4-68.266667 166.4-68.266666 98.133333 0 187.733333 64 226.133333 157.866666 4.266667 12.8 12.8 21.333333 25.6 25.6 64 21.333333 106.666667 76.8 106.666667 145.066667 0 42.666667-17.066667 81.066667-46.933333 110.933333-17.066667 17.066667-17.066667 42.666667-4.266667 59.733334 8.533333 8.533333 21.333333 12.8 29.866667 12.8 8.533333 0 21.333333-4.266667 29.866666-12.8 46.933333-42.666667 76.8-106.666667 76.8-174.933334 0-93.866667-55.466667-179.2-145.066666-217.6z" p-id="7857"></path><path d="M379.733333 554.666667c-21.333333-8.533333-46.933333 4.266667-51.2 29.866666l-64 213.333334c-8.533333 21.333333 4.266667 46.933333 25.6 55.466666h12.8c17.066667 0 34.133333-12.8 42.666667-29.866666l64-213.333334c8.533333-21.333333-4.266667-46.933333-29.866667-55.466666zM524.8 640c-21.333333-8.533333-46.933333 4.266667-51.2 29.866667l-64 213.333333c-8.533333 21.333333 4.266667 46.933333 29.866667 51.2h12.8c17.066667 0 34.133333-12.8 42.666666-29.866667l64-213.333333c0-17.066667-8.533333-42.666667-34.133333-51.2zM721.066667 554.666667c-21.333333-8.533333-46.933333 4.266667-51.2 29.866666l-64 213.333334c-8.533333 21.333333 4.266667 46.933333 29.866666 51.2h12.8c17.066667 0 34.133333-12.8 42.666667-29.866667l64-213.333333c4.266667-17.066667-8.533333-42.666667-34.133333-51.2z" p-id="7858"></path></svg>