<svg class="icon" viewBox="0 0 1024 1024" xmlns="http://www.w3.org/2000/svg" width="200" height="200"><defs><style/></defs><path d="M429.445 10.213h252.188a20.428 20.428 0 0 1 16.424 32.584L631.583 132.7l68.268 90.029a20.428 20.428 0 0 1-16.281 32.767H437.25v80.648l298.56.368a36.16 36.16 0 0 1 36.158 36.159v578.45h26.96V516.874h109.64a36.16 36.16 0 0 1 36.158 36.159v398.09h36.216a36.159 36.159 0 1 1 0 72.296H742.264a36.363 36.363 0 0 1-6.456.573l-449.423-.573H41.245a36.159 36.159 0 0 1 0-72.295h36.159V553.014a36.12 36.12 0 0 1 36.123-36.138h111.58v434.265h25.126V372.083a36.155 36.155 0 0 1 36.158-36.138l89.579.122V30.642a30.643 30.643 0 0 1 53.48-20.429zm98.322 643.796V481.741L387.522 703.388l68.19-8.91v184.226L619.75 635.81l-91.987 18.2z"/></svg>