<svg class="icon" viewBox="0 0 1024 1024" xmlns="http://www.w3.org/2000/svg" width="128" height="128"><defs><style/></defs><path d="M545.276 5.714c148.603 69.038 300.585 140.861 448.696 209.9 8.356 3.89 18.924 6.676 18.924 17.817s-10.568 13.353-18.924 17.265c-148.09 69.038-298.414 139.735-447.631 208.22a72.335 72.335 0 0 1-69.038 0c-149.77-69.038-299.52-139.264-448.737-208.773-7.803-3.339-17.818-6.144-17.818-17.265 0-10.015 10.015-12.8 17.265-16.138C177.763 146.575 330.236 74.752 480.64 5.16a98.816 98.816 0 0 1 64.574.553M511.812 1024a104.161 104.161 0 0 1-34.53-10.015c-149.77-69.038-299.52-139.264-448.184-208.773-7.803-3.891-18.432-6.144-18.432-17.817 0-11.142 10.588-13.353 18.924-17.265 24.576-11.694 49.54-23.388 74.055-35.082a84.337 84.337 0 0 1 74.056.553q149.504 69.324 297.861 138.629a83.149 83.149 0 0 0 73.482 0Q697.71 804.086 845.8 734.966a81.408 81.408 0 0 1 71.823-.553c26.624 11.694 52.9 24.576 79.053 36.74a45.486 45.486 0 0 1 11.14 6.677 11.448 11.448 0 0 1 0 19.477 75.162 75.162 0 0 1-14.479 8.356c-147.456 70.697-296.181 138.629-444.846 207.114a95.928 95.928 0 0 1-36.74 11.141m0-277.258a180.45 180.45 0 0 1-35.636-9.462C326.898 667.054 177.701 597.934 29.651 527.872c-7.803-3.338-18.923-6.144-18.923-17.265 0-11.694 11.14-13.926 19.476-17.817 25.047-12.288 50.115-23.941 75.162-35.635a80.855 80.855 0 0 1 72.376 1.679c99.103 45.65 199.311 92.426 299.52 139.264a80.282 80.282 0 0 0 69.632 0q150.323-70.984 301.2-140.862a80.261 80.261 0 0 1 69.631 0c26.174 12.288 52.9 24.576 79.053 36.742a51.876 51.876 0 0 1 10.588 6.144 12.288 12.288 0 0 1-.553 21.155 58 58 0 0 1-10.014 5.571A72925.88 72925.88 0 0 1 545.788 737.28a127.713 127.713 0 0 1-33.976 9.462z"/></svg>