<svg class="icon" viewBox="0 0 1051 1024" xmlns="http://www.w3.org/2000/svg" width="131.375" height="128"><defs><style/></defs><path d="M315.503 734.236l-78.046 16.328L97.695 961.73l52.584 52.307 212.55-138.379 16.328-77.215 131.46-131.736-63.655-63.377zm301.388-29.06l393.548-389.95a138.378 138.378 0 0 0 0-195.39 140.039 140.039 0 0 0-197.604 0L419.01 508.679l197.604 196.497zm319.93-476.021a25.462 25.462 0 0 1 35.979 0 24.908 24.908 0 0 1 0 35.424L666.43 569.012a25.738 25.738 0 1 1-36.532-36.255l306.647-304.433zm-74.724-74.448a25.738 25.738 0 1 1 36.532 36.255L591.983 495.395a25.738 25.738 0 0 1-36.532-35.979l306.646-304.432zM786.82 602.499L605.267 782.945c83.027 90.5 153.323 166.054 188.195 200.372a138.378 138.378 0 0 0 195.113 0 136.718 136.718 0 0 0 0-193.73zm144.467 324.636a55.351 55.351 0 0 1-78.598 0 55.351 55.351 0 0 1 0-77.769 55.351 55.351 0 0 1 78.598 0 55.351 55.351 0 0 1 0 77.77zM512.554 254.893a256.554 256.554 0 0 0-354.25-235.52l138.38 136.441a63.377 63.377 0 0 1 0 89.67l-53.138 52.03a64.208 64.208 0 0 1-90.223 0L17.713 162.733A252.402 252.402 0 0 0 0 254.893a256.277 256.277 0 0 0 512.554 0z"/></svg>