<svg class="icon" viewBox="0 0 1066 1024" xmlns="http://www.w3.org/2000/svg" width="133.25" height="128"><defs><style/></defs><path d="M517.035 859.05s315.52-270.42 315.52-551.466C829.909 137.814 689.365 0 517.035 0c-172.374 0-315.52 137.856-315.52 307.584 0 291.627 315.52 551.467 315.52 551.467zM344.66 315.52a171.99 171.99 0 0 1 172.374-172.373A171.99 171.99 0 0 1 689.408 315.52a171.99 171.99 0 0 1-172.373 172.373c-95.446 0-172.374-79.573-172.374-172.373z"/><path d="M766.293 692.053c-21.248 26.454-39.808 52.992-61.013 74.24 220.075 13.227 267.819 58.326 278.4 82.176-10.581 26.496-159.061 90.155-453.376 90.155-294.315 2.645-442.795-63.659-450.773-87.467 7.978-21.248 42.453-63.658 243.968-79.573a2331.563 2331.563 0 0 1-61.014-74.24C98.133 715.904 0 755.627 0 848.469c0 135.254 334.08 169.686 532.907 169.686 198.912 0 532.992-37.12 532.992-169.686 0-98.133-121.984-140.544-299.648-156.458z"/></svg>