<svg class="icon" viewBox="0 0 1024 1024" xmlns="http://www.w3.org/2000/svg" width="128" height="128"><defs><style/></defs><path d="M511.488 657.776c-88.351 0-159.998-71.647-159.998-159.998 0-88.383 71.647-159.998 159.998-159.998 88.351 0 159.998 71.615 159.998 159.998 0 88.351-71.647 159.998-159.998 159.998m351.42-139.454c.384-6.784.576-13.664.576-20.544 0-13.216-.736-26.24-2.143-39.04l103.71-71.967c14.24-9.888 18.976-30.528 10.176-45.791l-96.095-166.43c-8.704-15.073-28.831-21.568-44.735-14.08l-114.175 53.823a353.602 353.602 0 0 0-67.615-39.104L642.143 56.6c-1.44-17.248-16.928-24.576-34.56-24.576h-192.19c-17.408 0-33.088 7.072-34.56 24.575L370.37 178.741c-25.76 11.296-49.887 23.808-71.967 40.64l-121.119-57.984c-15.68-7.391-35.903-1.664-44.735 13.6L36.453 341.204c-8.704 15.103-4.256 35.647 10.208 45.695L160.9 466.13a357.349 357.349 0 0 0-1.408 31.68c0 6.88.192 13.696.576 20.512L57.925 589.233c-14.24 9.856-18.976 30.496-10.176 45.76l96.095 166.43c8.704 15.072 28.831 21.568 44.735 14.08l98.56-46.464c25.055 20.736 53.055 38.08 83.23 51.296l10.464 132.863c1.44 17.28 16.928 38.815 34.56 38.815h192.19c17.408 0 33.088-21.312 34.56-38.815l10.464-129.311c30.175-13.216 58.143-32.32 83.199-53.056l98.59 45.568c15.68 7.392 35.904.736 44.736-14.528l96.095-166.654c8.704-15.072 4.224-35.872-10.208-45.888l-102.11-71.007z"/></svg>