<?xml version="1.0" standalone="no"?><!DOCTYPE svg PUBLIC "-//W3C//DTD SVG 1.1//EN" "http://www.w3.org/Graphics/SVG/1.1/DTD/svg11.dtd"><svg t="1684115292286" class="icon" viewBox="0 0 1024 1024" version="1.1" xmlns="http://www.w3.org/2000/svg" p-id="21238" xmlns:xlink="http://www.w3.org/1999/xlink" width="48" height="48"><path d="M180.565333 467.968c13.312 13.312 34.816 13.312 48.128 0l44.373334-44.373333 44.032 44.032c13.312 13.312 34.816 13.312 48.128 0l44.373333-44.032 44.032 44.032c6.826667 6.826667 15.36 10.24 24.234667 10.24s17.408-3.413333 24.234666-9.898667l68.266667-68.266667a33.9968 33.9968 0 1 0-48.128-48.128L477.866667 395.605333l-44.032-44.032a33.9968 33.9968 0 0 0-48.128 0L341.333333 395.605333 297.301333 351.573333a33.9968 33.9968 0 0 0-48.128 0L204.8 395.605333 160.768 351.573333a33.9968 33.9968 0 1 0-48.128 48.128l67.925333 68.266667z m0 204.8c13.312 13.312 34.816 13.312 48.128 0l44.373334-44.373333 44.032 44.032c6.826667 6.826667 15.36 10.24 24.234666 10.24s17.408-3.413333 24.234667-9.898667l68.266667-68.266667a33.9968 33.9968 0 1 0-48.128-48.128L341.333333 600.405333 297.301333 556.373333a33.9968 33.9968 0 0 0-48.128 0L204.8 600.405333 160.768 556.373333a33.9968 33.9968 0 1 0-48.128 48.128l67.925333 68.266667zM955.733333 68.266667h-159.744c-18.432 0-33.792 15.018667-34.133333 33.450666-2.730667 138.24-44.373333 266.922667-112.64 376.149334H512v68.266666h89.429333C473.429333 706.218667 281.258667 808.618667 68.266667 808.618667c-18.773333 0-34.133333 15.36-34.133334 34.133333V921.6c0 18.773333 15.36 34.133333 34.133334 34.133333h887.466666c18.773333 0 34.133333-15.36 34.133334-34.133333V102.4c0-18.773333-15.36-34.133333-34.133334-34.133333z m-34.133333 819.2H102.4v-11.264c137.557333-6.485333 265.557333-51.882667 375.466667-125.269334h273.066666v17.066667c0 12.970667 7.168 24.576 18.773334 30.378667 4.778667 2.389333 9.898667 3.754667 15.36 3.754666 7.168 0 14.336-2.389333 20.48-6.826666l68.266666-51.2c8.533333-6.485333 13.653333-16.725333 13.653334-27.306667s-5.12-20.821333-13.653334-27.306667l-68.266666-51.2a33.9968 33.9968 0 0 0-35.84-3.072c-11.605333 5.802667-18.773333 17.408-18.773334 30.378667v17.066667h-185.685333a793.941333 793.941333 0 0 0 120.832-136.533334H750.933333v17.066667c0 12.970667 7.168 24.576 18.773334 30.378667 4.778667 2.389333 9.898667 3.754667 15.36 3.754666 7.168 0 14.336-2.389333 20.48-6.826666l68.266666-51.2c8.533333-6.485333 13.653333-16.725333 13.653334-27.306667s-5.12-20.821333-13.653334-27.306667l-68.266666-51.2a33.9968 33.9968 0 0 0-35.84-3.072c-11.605333 5.802667-18.773333 17.408-18.773334 30.378667v17.066667h-21.845333c56.661333-102.058667 92.16-217.770667 99.669333-341.333334H921.6v750.933334z" p-id="21239" fill="#5598f1"></path></svg>