<?xml version="1.0" standalone="no"?><!DOCTYPE svg PUBLIC "-//W3C//DTD SVG 1.1//EN" "http://www.w3.org/Graphics/SVG/1.1/DTD/svg11.dtd"><svg t="1684115407549" class="icon" viewBox="0 0 1024 1024" version="1.1" xmlns="http://www.w3.org/2000/svg" p-id="25649" xmlns:xlink="http://www.w3.org/1999/xlink" width="48" height="48"><path d="M558.592 849.92l-2.56-1.536v-558.08c0-24.064-19.968-44.032-44.032-44.032s-44.032 19.968-44.032 44.032v558.08l-2.56 1.536c-36.352 20.48-54.272 63.488-43.52 104.448 11.264 40.96 48.64 69.632 90.624 69.632 42.496 0 78.848-28.16 90.624-69.632 9.728-41.472-7.68-83.456-44.544-104.448z" p-id="25650" fill="#5598f1"></path><path d="M954.88 739.328c-24.064 0-44.032 19.968-44.032 44.032v48.128c0 30.208-24.576 54.272-54.272 54.272-30.208 0-54.272-24.576-54.272-54.272V276.48c-2.048-75.264-33.28-145.408-87.552-198.144C662.016 27.648 592.896 0 519.68 0h-21.504C345.6 1.024 222.208 125.44 222.208 276.992v555.52c0 30.208-24.576 54.272-54.272 54.272s-54.272-24.576-54.272-54.272V783.36c0-24.064-19.968-44.032-44.032-44.032S25.6 759.296 25.6 783.36v48.128c0 78.336 64 142.336 142.336 142.336s142.336-64 142.336-142.336V678.912h5.12c24.064 0 44.032-19.968 44.032-44.032 0-24.064-19.968-44.032-44.032-44.032h-5.12v-59.392h5.12c24.064 0 44.032-19.968 44.032-44.032 0-24.064-19.968-44.032-44.032-44.032h-5.12v-59.904h5.12c24.064 0 44.032-19.968 44.032-44.032 0-24.064-19.968-44.032-44.032-44.032h-5.12v-19.456c0-51.2 21.504-100.864 58.88-136.192 35.328-33.28 81.92-51.712 131.584-51.712h17.408c105.984 0 192.512 82.944 196.608 188.928v19.456h-5.12c-24.064 0-44.032 19.968-44.032 44.032 0 24.064 19.968 44.032 44.032 44.032h5.12v59.392h-5.12c-24.064 0-44.032 19.968-44.032 44.032 0 24.064 19.968 44.032 44.032 44.032h5.12v59.392h-5.12c-24.064 0-44.032 19.968-44.032 44.032 0 24.064 19.968 44.032 44.032 44.032h5.12V832c0 78.336 64 142.336 142.336 142.336s142.336-64 142.336-142.336v-48.64c-0.512-24.576-20.48-44.032-44.544-44.032z" p-id="25651" fill="#5598f1"></path><path d="M955.904 246.272c-24.064 0-44.032 19.968-44.032 44.032v296.448c0 24.064 19.968 44.032 44.032 44.032 24.064 0 44.032-19.968 44.032-45.056V290.304c0-24.576-19.968-44.032-44.032-44.032z m-887.808 384c12.288 0 24.064-4.608 32.256-13.312 8.192-8.192 12.288-19.456 11.776-31.744V290.304c0-24.064-19.968-44.032-44.032-44.032s-44.032 19.968-44.032 44.032v296.448c0 24.064 19.968 43.52 44.032 43.52z" p-id="25652" fill="#5598f1"></path></svg>