<svg class="icon" viewBox="0 0 1153 1024" xmlns="http://www.w3.org/2000/svg" width="144.125" height="128"><defs><style/></defs><path d="M779.184 535.611c-5.659-71.192 234.03-69.244 234.03-69.244s-186.028-40.722-273.36 31.816c-110.476 91.692 56.212 149.76 93.64 187.234S874.633 788.426 709.94 792.09a2611.165 2611.165 0 0 1-280.874-7.467 1946.64 1946.64 0 0 1-61.824 207.78S683.735 1001.678 811 971.81s262.183-131.068 204.07-247.11-230.32-117.943-235.886-189.089zM314.786 5.771A314.546 314.546 0 0 0 .008 320.319c0 173.737 250.867 310.742 314.592 657.29 89.837-340.843 314.5-483.553 314.5-657.29A314.546 314.546 0 0 0 314.786 5.772zm0 481.188a166.641 166.641 0 1 1 166.641-166.641 166.641 166.641 0 0 1-166.641 166.641zm798.33-342.141a139.138 139.138 0 1 0-278.045 0c0 76.758 110.847 137.376 139.138 290.52 39.701-150.686 139.139-213.716 139.139-290.52zm-212.696 0a73.65 73.65 0 1 1 73.882 73.65 73.65 73.65 0 0 1-73.65-73.65z"/></svg>