<svg class="icon" viewBox="0 0 1024 1024" xmlns="http://www.w3.org/2000/svg" width="128" height="128"><defs><style/></defs><path d="M486.077 107.79c70.44 0 128.054 54.271 129.967 122.421v336.384c52.305 38.346 86.663 98.493 86.663 166.858a206.282 206.282 0 0 1-63.408 148.292 220.24 220.24 0 0 1-153.222 61.413 220.24 220.24 0 0 1-153.196-61.413 206.282 206.282 0 0 1-63.407-148.292c0-68.365 34.33-128.538 86.662-166.858V230.211c1.887-68.15 59.554-122.422 129.94-122.422zm0 38.534c-22.986 0-45.002 8.812-61.279 24.55a82.513 82.513 0 0 0-25.357 59.337V589.34c-51.497 28.941-86.636 82.297-86.636 144.114 0 44.464 18.243 87.148 50.742 118.623a176.182 176.182 0 0 0 122.53 49.125 176.182 176.182 0 0 0 122.556-49.125 165.026 165.026 0 0 0 50.742-118.623c0-61.844-35.14-115.065-86.636-144.114V230.21c0-22.258-9.108-43.6-25.357-59.338a88.09 88.09 0 0 0-61.305-24.522zM519.49 394.78V622.16c18.89 6.036 36.272 16.168 50.634 29.858a121.048 121.048 0 0 1 38.05 87.632c0 32.876-13.662 64.405-38.05 87.66a133.228 133.228 0 0 1-91.89 36.298 133.228 133.228 0 0 1-91.944-36.298 121.048 121.048 0 0 1-38.05-87.66c0-32.875 13.69-64.404 38.05-87.632a130.964 130.964 0 0 1 48.586-29.184V394.779h84.614zm196.824-247.215c35.49 0 64.458 27.082 65.159 60.9.43 22.475-11.857 43.386-32.23 54.758a67.961 67.961 0 0 1-65.886 0c-20.318-11.345-32.66-32.283-32.202-54.757.674-33.82 29.642-60.901 65.159-60.901zm-.108 40.151c-11.991 0-21.72 9.243-21.8 20.669 0 11.426 9.755 20.696 21.746 20.696 12.019 0 21.747-9.27 21.747-20.696 0-11.399-9.62-20.669-21.693-20.669z"/></svg>