<?xml version="1.0" standalone="no"?><!DOCTYPE svg PUBLIC "-//W3C//DTD SVG 1.1//EN" "http://www.w3.org/Graphics/SVG/1.1/DTD/svg11.dtd"><svg t="1684295087281" class="icon" viewBox="0 0 1024 1024" version="1.1" xmlns="http://www.w3.org/2000/svg" p-id="21896" xmlns:xlink="http://www.w3.org/1999/xlink" width="64" height="64"><path d="M911.36 535.04v268.8c0 40.96-35.84 76.8-81.92 76.8H194.56c-46.08 0-81.92-33.28-81.92-76.8v-268.8C76.8 527.36 51.2 499.2 51.2 460.8v-128C51.2 291.84 87.04 256 133.12 256h168.96V179.2c0-20.48 17.92-38.4 40.96-38.4h337.92c23.04 0 40.96 17.92 40.96 38.4V256h168.96c46.08 0 81.92 33.28 81.92 76.8v128c0 38.4-25.6 66.56-61.44 74.24z m-716.8 289.28H832c12.8 0 20.48-7.68 20.48-17.92v-268.8h-102.4v71.68c0 15.36-15.36 28.16-30.72 28.16s-30.72-12.8-30.72-28.16V537.6H337.92v71.68c0 15.36-15.36 28.16-30.72 28.16s-30.72-12.8-30.72-28.16V537.6h-102.4v266.24c0 12.8 7.68 20.48 20.48 20.48zM660.48 199.68h-296.96V256h296.96V199.68z m250.88 133.12c0-10.24-7.68-17.92-20.48-17.92H133.12c-12.8 0-20.48 7.68-20.48 17.92v128c0 10.24 7.68 17.92 20.48 17.92h143.36v-66.56c0-15.36 15.36-28.16 30.72-28.16s30.72 12.8 30.72 28.16v66.56h350.72v-66.56c0-15.36 15.36-28.16 30.72-28.16s30.72 12.8 30.72 28.16v66.56h143.36c12.8 0 20.48-7.68 20.48-17.92v-128h-2.56z" p-id="21897"></path></svg>