<svg class="icon" viewBox="0 0 1024 1024" xmlns="http://www.w3.org/2000/svg" width="130" height="130"><defs><style>@font-face{font-family:feedback-iconfont;src:url(//at.alicdn.com/t/font_1031158_1uhr8ri0pk5.eot?#iefix) format(&quot;embedded-opentype&quot;),url(//at.alicdn.com/t/font_1031158_1uhr8ri0pk5.woff2) format(&quot;woff2&quot;),url(//at.alicdn.com/t/font_1031158_1uhr8ri0pk5.woff) format(&quot;woff&quot;),url(//at.alicdn.com/t/font_1031158_1uhr8ri0pk5.ttf) format(&quot;truetype&quot;),url(//at.alicdn.com/t/font_1031158_1uhr8ri0pk5.svg#iconfont) format(&quot;svg&quot;)}</style></defs><path d="M423.173 101.488c23.394-25.271 53.083-37.892 89.34-37.892 36.274 0 65.999 12.494 89.383 37.384 23.291 24.958 34.911 56.154 34.911 93.703 0 32.291-48.587 269.723-64.738 442.454h-116.86c-14.185-172.731-66.817-410.163-66.817-442.454-.098-36.973 11.533-68.041 34.781-93.195zm177.052 821.327c-24.635 24.026-53.871 35.914-87.711 35.914-33.82 0-63.104-11.888-87.701-35.914-24.508-23.837-36.719-52.762-36.719-86.783 0-33.827 12.186-63.075 36.719-87.544 24.597-24.568 53.849-36.748 87.701-36.748 33.87 0 63.115 12.275 87.711 36.748 24.479 24.536 36.72 53.788 36.72 87.544-.001 33.992-12.241 62.919-36.72 86.783z"/></svg>