<?xml version="1.0" standalone="no"?><!DOCTYPE svg PUBLIC "-//W3C//DTD SVG 1.1//EN" "http://www.w3.org/Graphics/SVG/1.1/DTD/svg11.dtd"><svg t="1682038147177" class="icon" viewBox="0 0 1024 1024" version="1.1" xmlns="http://www.w3.org/2000/svg" p-id="9250" xmlns:xlink="http://www.w3.org/1999/xlink" width="64" height="64"><path d="M778.666667 506.837333l121.728-58.410666a26.837333 26.837333 0 0 1 34.944 11.050666 26.325333 26.325333 0 0 1 3.328 12.8v292.650667a26.282667 26.282667 0 0 1-12.501334 22.4 26.794667 26.794667 0 0 1-25.770666 1.408l-121.728-58.410667v112.725334c0 14.037333-5.632 27.52-15.616 37.418666A53.504 53.504 0 0 1 725.333333 896H138.666667c-14.165333 0-27.733333-5.546667-37.717334-15.530667A52.778667 52.778667 0 0 1 85.333333 843.093333V419.328c0-14.08 5.632-27.52 15.616-37.461333 10.026667-9.941333 23.552-15.530667 37.717334-15.530667H725.333333c14.122667 0 27.733333 5.589333 37.717334 15.530667 9.984 9.941333 15.616 23.381333 15.616 37.461333v87.509333z m0 164.266667l104.789333 50.261333V515.84l-104.789333 50.218667v105.088z m-640-251.776v423.68H725.333333v-423.68H138.666667zM512 339.882667a107.306667 107.306667 0 0 1-75.434667-31.061334A105.898667 105.898667 0 0 1 405.333333 233.941333a105.301333 105.301333 0 0 1 31.232-74.922666A106.752 106.752 0 0 1 512 128a107.093333 107.093333 0 0 1 75.434667 31.018667 105.557333 105.557333 0 0 1 0 149.802666A107.093333 107.093333 0 0 1 512 339.882667z m0-52.992a53.674667 53.674667 0 0 0 37.717333-15.488 52.992 52.992 0 0 0 15.616-37.461334 52.650667 52.650667 0 0 0-32.938666-48.938666 53.674667 53.674667 0 0 0-58.112 11.477333 52.778667 52.778667 0 0 0 0 74.922667c10.026667 9.898667 23.594667 15.488 37.717333 15.488zM298.666667 339.882667c-21.205333 0-41.557333-8.405333-56.576-23.296a79.189333 79.189333 0 0 1 0-112.341334 80.298667 80.298667 0 0 1 113.152 0 79.189333 79.189333 0 0 1 0 112.341334c-15.018667 14.933333-35.370667 23.296-56.576 23.296z m0-52.992a26.752 26.752 0 0 0 18.858666-7.765334A26.410667 26.410667 0 0 0 298.666667 233.898667a26.752 26.752 0 0 0-18.858667 7.808A26.410667 26.410667 0 0 0 298.666667 286.933333z m53.333333 442.88v-211.882667a26.325333 26.325333 0 0 1 13.269333-22.869333 26.88 26.88 0 0 1 26.624-0.085334l186.666667 105.898667a26.581333 26.581333 0 0 1 13.44 23.04 26.368 26.368 0 0 1-13.44 22.954667l-186.666667 105.941333a26.794667 26.794667 0 0 1-36.352-9.813333 26.368 26.368 0 0 1-3.541333-13.226667z m53.333333-166.229334v120.618667l106.24-60.330667-106.24-60.288z"  p-id="9251"></path></svg>