<svg class="icon" viewBox="0 0 1024 1024" xmlns="http://www.w3.org/2000/svg" width="128" height="128"><defs><style/></defs><path d="M571.588 347.432c22.396-17.796 36.693-45.291 36.393-76.185-.5-51.89-42.691-94.382-94.581-95.081-53.59-.7-97.381 42.491-97.381 95.98 0 30.395 14.097 57.49 36.093 74.986 11.397 9.098 15.297 24.795 9.398 38.093L176.566 1023.9h63.487c25.295 0 48.19-14.897 58.389-37.893l82.984-186.063h260.849l82.983 186.063c10.298 23.096 33.194 37.893 58.389 37.893h63.588L562.29 385.225c-5.699-13.098-2.1-28.795 9.298-37.793zM512 507.701l30.494 68.386h-61.088L512 507.701zm-87.583 196.361l14.297-31.993h146.672l14.297 31.993H424.417zM762.351 100.78l-52.59 36.393a238.067 238.067 0 0 1 23.096 42.392c12.697 29.894 19.096 61.688 19.096 94.581 0 32.794-6.399 64.588-19.096 94.582-6.299 14.897-13.997 29.094-23.096 42.392l52.59 36.393c33.794-49.39 53.59-109.08 53.59-173.367s-19.796-123.975-53.59-173.366zM310.24 134.474L257.65 98.08c-35.092 49.79-55.588 110.578-55.588 176.065s20.496 126.276 55.489 176.166l52.59-36.393a245.917 245.917 0 0 1-25.096-45.191c-12.597-29.994-18.996-61.788-18.996-94.582s6.399-64.687 19.096-94.581c6.699-15.997 15.097-31.094 25.095-45.091zM908.023 0l-52.59 36.393c15.597 22.795 28.994 47.19 39.792 72.886 21.696 51.19 32.694 105.679 32.694 161.868s-10.998 110.678-32.694 161.868c-11.498 27.195-25.795 52.99-42.692 76.985l52.59 36.393c54.69-77.984 86.783-172.866 86.783-275.246 0-100.58-30.994-193.962-83.883-271.147zM96.08 271.147c0-56.189 10.998-110.678 32.694-161.868 10.898-25.695 24.195-50.09 39.792-72.886L115.977 0c-52.89 77.185-83.883 170.567-83.883 271.147 0 102.38 32.093 197.262 86.683 275.246L171.367 510c-16.897-23.995-31.094-49.69-42.692-76.985-21.596-51.19-32.594-105.679-32.594-161.868z"/></svg>