<?xml version="1.0" standalone="no"?><!DOCTYPE svg PUBLIC "-//W3C//DTD SVG 1.1//EN" "http://www.w3.org/Graphics/SVG/1.1/DTD/svg11.dtd"><svg t="1677640515693" class="icon" viewBox="0 0 1024 1024" version="1.1" xmlns="http://www.w3.org/2000/svg" p-id="5057" xmlns:xlink="http://www.w3.org/1999/xlink" width="64" height="64"><path d="M526.826667 88.96c-9.28-4.8-20.373333-4.8-29.653334 0C482.133333 96.853333 128 284.48 128 559.466667c0 37.013333 5.44 72.853333 15.466667 106.666666 0.32 1.173333 0.746667 2.453333 1.173333 3.626667C192.533333 825.173333 339.093333 938.666667 512 938.666667c211.733333 0 384-170.133333 384-379.2 0-274.986667-354.133333-462.613333-369.173333-470.506667zM512 874.666667c-138.346667 0-256.533333-86.933333-301.12-208.32L288 589.226667l126.72 126.72c6.186667 6.293333 14.4 9.386667 22.613333 9.386666s16.426667-3.093333 22.613334-9.386666L661.333333 514.56V544c0 17.706667 14.293333 32 32 32s32-14.293333 32-32V437.333333c0-2.026667-0.213333-4.053333-0.64-6.08 0-0.32-0.106667-0.746667-0.213333-1.173333a31.648 31.648 0 0 0-4.48-10.346667c-0.533333-0.96-1.173333-1.813333-1.92-2.56a23.36 23.36 0 0 0-4.586667-4.586666c-0.746667-0.746667-1.6-1.386667-2.56-1.92a31.648 31.648 0 0 0-10.346666-4.48c-0.426667-0.106667-0.853333-0.213333-1.173334-0.213334A29.44 29.44 0 0 0 693.333333 405.333333H586.666667c-17.706667 0-32 14.293333-32 32s14.293333 32 32 32h29.44L437.333333 648.106667 310.613333 521.386667a32 32 0 0 0-45.226666 0l-71.573334 71.573333c-1.173333-10.986667-1.813333-22.186667-1.813333-33.493333 0-207.146667 255.146667-368 320-405.44 64.853333 37.44 320 198.293333 320 405.44C832 733.333333 688.426667 874.666667 512 874.666667z" p-id="5058"></path></svg>