<svg class="icon" viewBox="0 0 1024 1024" xmlns="http://www.w3.org/2000/svg" width="128" height="128"><defs><style/></defs><path d="M223.432 480.104l90.84.12 9.52 15.408 4.048 6.44a533.895 533.895 0 0 0 6.16 9.456l4.184 6.184a520.4 520.4 0 0 0 17.64 24.16l4.696 5.968c1.584 1.992 3.2 3.984 4.832 5.976l4.984 6 5.144 6.032 5.312 6.08 2.72 3.072 5.6 6.192 2.88 3.136 5.896 6.336 6.128 6.448 6.352 6.584 6.6 6.728 6.856 6.896 7.12 7.072 7.408 7.264 7.688 7.472 12.112 11.648 16.784 16a51.12 51.12 0 0 0 35.176 14.08 50.72 50.72 0 0 0 35.136-14.032l7.2-6.816 8.8-8.368 12.592-12.096 8-7.776 7.696-7.576 7.416-7.392 7.136-7.216 3.472-3.552 6.752-7 6.512-6.88 3.168-3.392 6.16-6.72a695.328 695.328 0 0 0 20.016-22.992l5.32-6.488 5.16-6.48a544.832 544.832 0 0 0 14.704-19.632l4.672-6.648a549.66 549.66 0 0 0 9.096-13.584l4.44-6.96 11.744-18.96h86.304a92.72 92.72 0 0 1 88.456 64.904l87.928 278.856a92.68 92.68 0 0 1-7.28 72.896 92.424 92.424 0 0 1-57.76 44.76l-303.68 79.328a92.56 92.56 0 0 1-79.336-15.944L372.592 893.488a27.624 27.624 0 0 0-23.36-4.784L163.496 935.16c-69.96 17.6-132.384-48.016-111.384-116.944l82.464-272.152a92.776 92.776 0 0 1 88.856-65.96zM512.176 0C646.936.112 756.32 108.264 756.32 241.824c0 63-25.8 124.984-71.92 187.76l-3.112 4.184-4.984 6.552-5.328 6.8-5.248 6.528-6.064 7.336-1.896 2.248-5.36 6.264-5.376 6.144-5.392 6.048-5.408 5.928-5.44 5.872-8.08 8.512-8.008 8.248-7.888 7.96-5.248 5.2-7.696 7.536-7.528 7.272-9.696 9.224-13.592 12.768-10.456 9.784a59.296 59.296 0 0 1-79.384 1.288l-1.6-1.456-22.416-21.04-12.32-11.712-7.68-7.424-7.816-7.656-5.312-5.28-5.4-5.44-8.08-8.256-5.44-5.68-5.456-5.792-8.2-8.896-5.456-6.08-5.44-6.176-7.12-8.304-6.216-7.448-3.584-4.416-1.848-2.304-5.248-6.664-5.024-6.568-3.464-4.64-1.784-2.432-4.848-6.752c-42-59.504-65.384-118.744-65.384-179.136 0-64.128 25.76-125.64 71.544-171.008C384.432 26.32 444.832 1.064 508.112.032L512.176 0zm1.4 130.2l-2.768.016-1.92.024c-61.04 1.312-110.616 49.672-110.616 109.808 0 59.864 49.176 108.224 110.104 109.8l5.392.056c39.392-.168 76.264-20.456 96.576-53.816a107.232 107.232 0 0 0-.032-112.032c-20.704-34.136-58.84-54.624-99.504-53.84z"/></svg>