<?xml version="1.0" standalone="no"?><!DOCTYPE svg PUBLIC "-//W3C//DTD SVG 1.1//EN" "http://www.w3.org/Graphics/SVG/1.1/DTD/svg11.dtd"><svg t="1645004295851" class="icon" viewBox="0 0 1024 1024" version="1.1" xmlns="http://www.w3.org/2000/svg" p-id="5985" xmlns:xlink="http://www.w3.org/1999/xlink" width="128" height="128"><defs><style type="text/css"></style></defs><path d="M515.113 1003.52c-18.569 0-31.02-6.116-43.418-12.18L124.683 790.147c-31.021-12.18-49.59-42.654-49.59-79.245V314.627c0-30.474 18.569-60.948 43.364-79.244l347.122-201.25c30.965-18.295 61.986-18.295 92.951 0l347.068 201.195c30.965 18.297 43.363 48.77 43.363 79.245v396.274c0 30.475-18.568 60.95-43.363 79.244L558.53 991.286c-12.397 6.062-24.793 12.18-43.362 12.18zM301.138 353.621c-19.388-9.666-45.82-0.874-55.27 18.023-9.447 18.841-0.6 45.274 18.242 54.722l193.277 105.677a19.934 19.934 0 0 1 11.087 18.35v240.3c0 16.93 18.186 37.9 37.956 37.9 22.609 0 43.964-14.636 43.964-37.9v-240.3c0-7.864 3.931-14.745 10.65-18.132l196.99-96.447c19.005-9.448 27.852-35.88 18.349-54.777-9.448-18.842-35.826-27.689-54.722-18.24l-5.407 3.004-209.442 102.508-205.62-114.688z" p-id="5986"></path></svg>