<?xml version="1.0" standalone="no"?><!DOCTYPE svg PUBLIC "-//W3C//DTD SVG 1.1//EN" "http://www.w3.org/Graphics/SVG/1.1/DTD/svg11.dtd"><svg t="1645003842305" class="icon" viewBox="0 0 1024 1024" version="1.1" xmlns="http://www.w3.org/2000/svg" p-id="2791" xmlns:xlink="http://www.w3.org/1999/xlink" width="128" height="128"><defs><style type="text/css"></style></defs><path d="M614.937456 1011.778977a66.80859 66.80859 0 0 1-77.036078 0c-256.429513-180.053274-365.880129-336.352382-365.880129-522.509156V283.730307a67.715867 67.715867 0 0 1 67.385948-67.963306 513.601344 513.601344 0 0 0 291.813322-126.029043 66.973549 66.973549 0 0 1 90.727715 0 517.97277 517.97277 0 0 0 291.730842 125.946563 66.72611 66.72611 0 0 1 47.59081 19.877618 68.540664 68.540664 0 0 1 19.795138 48.085689v205.621993c0 186.156774-109.368136 342.455883-365.797649 522.509156zM732.965964 487.455266H607.844198V377.757212a31.424781 31.424781 0 1 0-62.849562 0v109.698054H419.955349a31.259822 31.259822 0 0 0 0 62.519644h125.121766v125.204246a31.424781 31.424781 0 1 0 62.849563 0V549.97491h125.121766a31.259822 31.259822 0 0 0 0-62.519644zM201.136598 182.857585a73.24201 73.24201 0 0 0-73.489449 73.07705v220.963225c0 188.631167 106.151426 348.724343 352.60089 528.530177a67.303468 67.303468 0 0 1-60.705089-9.48517C155.030423 805.084747 42.115658 639.465428 42.115658 442.173889V224.262414a70.850097 70.850097 0 0 1 69.530421-72.087293 523.581393 523.581393 0 0 0 301.051053-133.617179 67.798347 67.798347 0 0 1 93.202107 0s8.825332 8.825332 23.259287 21.362252a75.304003 75.304003 0 0 0-9.897569 7.340697 563.171668 563.171668 0 0 1-318.124359 135.514214z" p-id="2792"></path></svg>