<?xml version="1.0" standalone="no"?><!DOCTYPE svg PUBLIC "-//W3C//DTD SVG 1.1//EN" "http://www.w3.org/Graphics/SVG/1.1/DTD/svg11.dtd"><svg t="1646037592911" class="icon" viewBox="0 0 1024 1024" version="1.1" xmlns="http://www.w3.org/2000/svg" p-id="1538" width="400" height="400" xmlns:xlink="http://www.w3.org/1999/xlink"><defs><style type="text/css"></style></defs><path d="M1004.448904 302.500323a144.44703 144.44703 0 0 1 19.5636 70.531926v504.976226a147.094735 147.094735 0 0 1-145.991525 145.991525H146.004029A147.094735 147.094735 0 0 1 0.012504 878.008475V373.032249a129.002083 129.002083 0 0 1 19.931337-70.531926 179.234935 179.234935 0 0 1 53.027652-53.468936L438.943194 21.990663a143.932199 143.932199 0 0 1 152.978525 0l365.971701 227.040724a190.193493 190.193493 0 0 1 46.555484 53.468936zM711.436191 564.990878a81.784673 81.784673 0 0 0 0-106.055304 71.414494 71.414494 0 0 0-53.468936-19.931336h-291.98305a71.193852 71.193852 0 0 0-53.468936 19.931336 81.784673 81.784673 0 0 0 0 106.055304 71.267399 71.267399 0 0 0 53.468936 19.931337h291.98305a71.414494 71.414494 0 0 0 53.468936-19.931337z m0 292.497882a81.784673 81.784673 0 0 0 0-106.055305 75.533147 75.533147 0 0 0-53.468936-20.446168h-291.98305a75.606694 75.606694 0 0 0-53.468936 20.446168 81.784673 81.784673 0 0 0 0 106.055305 75.459599 75.459599 0 0 0 53.468936 20.446168h291.98305a75.533147 75.533147 0 0 0 53.468936-20.446168z" p-id="1539"></path></svg>