<?xml version="1.0" standalone="no"?><!DOCTYPE svg PUBLIC "-//W3C//DTD SVG 1.1//EN" "http://www.w3.org/Graphics/SVG/1.1/DTD/svg11.dtd"><svg t="1645003601679" class="icon" viewBox="0 0 1448 1024" version="1.1" xmlns="http://www.w3.org/2000/svg" p-id="5949" xmlns:xlink="http://www.w3.org/1999/xlink" width="181" height="128"><defs><style type="text/css"></style></defs><path d="M551.821267 942.121283h-215.017639v64.84932h774.751554v-64.84932H551.821267zM1154.042668 15.997312H293.628087c-17.201411 0-33.542752 6.880564-45.755754 18.921552-12.213002 12.213002-18.921552 28.554342-18.921552 45.755754v603.081471c0 35.778935 28.898371 64.84932 64.677306 64.84932h860.414581c35.778935 0 64.677306-29.070385 64.677305-64.84932V80.674618c0-17.201411-6.70855-33.714766-18.921552-45.755754-12.040988-12.213002-28.554342-19.093566-45.755753-18.921552z m8.428691 651.761465c0 11.868974-9.63279 22.18982-22.017806 22.18982H306.701159c-12.213002 0-22.18982-9.976818-22.18982-22.18982V96.499916c0-11.868974 9.63279-22.18982 22.18982-22.18982H1140.453553c11.868974 0 22.017806 9.63279 22.017806 22.18982v571.258861zM911.8468 888.108853v-61.409038h-364.669914v61.409038h364.669914z m0 0" p-id="5950"></path><path d="M723.822915 497.199846a27.866286 27.866286 0 1 0 0.072953-55.732524 27.866286 27.866286 0 1 0-0.072953 55.732524Z" p-id="5951"></path><path d="M752.733748 274.018478v117.485638c0 15.997312-12.901058 28.898371-28.898371 28.89837s-28.898371-13.073072-28.89837-28.89837v-117.485638c0-15.997312 13.073072-28.898371 28.89837-28.89837 15.997312 0.172014 28.898371 13.073072 28.898371 28.89837z" p-id="5952"></path><path d="M1156.106837 61.92508H293.112044c-7.912649 0-14.449185 6.536536-14.449185 14.449185V686.336301c0 7.912649 6.536536 14.449185 14.449185 14.449185h862.994793c7.912649 0 14.449185-6.536536 14.449185-14.449185V76.374265c0-7.912649-6.536536-14.449185-14.449185-14.449185zM946.421636 547.692928c-5.84848 10.320847-16.857383 16.513355-28.554342 16.513355H529.80346c-11.69696-0.172014-22.533848-6.364522-28.382328-16.685369-5.84848-10.148833-5.84848-22.705863 0-32.854695l194.031917-336.115572c5.676466-10.320847 16.513355-16.685369 28.382328-16.685369 11.69696 0 22.533848 6.364522 28.382328 16.685369L946.077608 514.666219c6.192508 10.148833 6.364522 22.705863 0.344028 33.026709z" p-id="5953"></path></svg>