<?xml version="1.0" standalone="no"?><!DOCTYPE svg PUBLIC "-//W3C//DTD SVG 1.1//EN" "http://www.w3.org/Graphics/SVG/1.1/DTD/svg11.dtd"><svg t="1684114913606" class="icon" viewBox="0 0 1024 1024" version="1.1" xmlns="http://www.w3.org/2000/svg" p-id="20257" xmlns:xlink="http://www.w3.org/1999/xlink" width="48" height="48"><path d="M512 512m-472.615385 0a472.615385 472.615385 0 1 0 945.23077 0 472.615385 472.615385 0 1 0-945.23077 0Z" fill="#d81e06" p-id="20258" data-spm-anchor-id="a313x.7781069.0.i28" class=""></path><path d="M687.931077 654.729846V604.947692h-65.851077v-43.874461h65.851077v-65.811693h-65.851077V451.347692h65.851077V385.575385h-65.851077V341.700923h65.851077V297.747692h43.874461v385.575385c7.207385 6.537846 12.957538 12.603077 16.856616 17.329231l-33.713231 28.041846a159.035077 159.035077 0 0 0-19.692308-18.865231c-13.587692-10.830769-26.624-17.092923-36.588307-17.092923-6.774154 0-9.846154 2.166154-19.692308 14.020923-17.565538 21.070769-29.774769 29.853538-53.444923 29.853539-23.709538 0-35.84-8.782769-53.444923-29.853539-9.846154-11.815385-12.918154-14.020923-19.692308-14.020923-6.813538 0-9.846154 2.166154-19.692308 14.020923-17.565538 21.070769-29.774769 29.853538-53.444923 29.853539-23.709538 0-35.84-8.782769-53.444923-29.853539-9.846154-11.815385-12.918154-14.020923-19.692307-14.020923a50.451692 50.451692 0 0 0-29.814154 10.003692 51.081846 51.081846 0 0 0-10.397539 9.491693l-2.363077 2.678153a357.612308 357.612308 0 0 0-14.414769 14.611693l-32.295384-29.696c4.923077-5.277538 9.964308-10.436923 15.163076-15.478154 3.977846-5.001846 10.24-11.185231 18.747077-17.250462a93.696 93.696 0 0 1 55.335385-18.235077c23.709538 0 35.879385 8.743385 53.444923 29.814154 9.846154 11.854769 12.957538 14.060308 19.731692 14.060308s9.846154-2.205538 19.692308-14.060308c17.565538-21.070769 29.735385-29.814154 53.444923-29.814154s35.84 8.743385 53.405539 29.814154c9.885538 11.854769 12.996923 14.060308 19.692307 14.060308 6.813538 0 9.846154-2.205538 19.771077-14.060308 17.526154-21.070769 29.735385-29.814154 53.405539-29.814154 9.846154 0 19.652923 2.048 29.262769 5.828924z m-263.325539-71.68c-60.337231 0-109.686154-50.412308-109.686153-112.482461 0-73.688615 101.848615-194.717538 109.686153-194.717539 7.876923 0 109.725538 121.028923 109.725539 194.717539 0 62.070154-49.388308 112.482462-109.725539 112.482461z" fill="#ffffff" p-id="20259" data-spm-anchor-id="a313x.7781069.0.i29" class="selected"></path></svg>